<svg width="17" height="17" viewBox="0 0 17 17" fill="none" xmlns="http://www.w3.org/2000/svg">
<path d="M8.5 10.625C9.6736 10.625 10.625 9.6736 10.625 8.5C10.625 7.32639 9.6736 6.375 8.5 6.375C7.32639 6.375 6.375 7.32639 6.375 8.5C6.375 9.6736 7.32639 10.625 8.5 10.625Z" stroke="#1D3042" stroke-miterlimit="10" stroke-linecap="round" stroke-linejoin="round"/>
<path d="M1.41602 9.12343V7.87676C1.41602 7.1401 2.0181 6.53093 2.76185 6.53093C4.04393 6.53093 4.5681 5.62426 3.92352 4.51218C3.55518 3.87468 3.77477 3.04593 4.41935 2.6776L5.64477 1.97635C6.20435 1.64343 6.92685 1.84176 7.25977 2.40135L7.33768 2.53593C7.97518 3.64801 9.02352 3.64801 9.6681 2.53593L9.74602 2.40135C10.0789 1.84176 10.8014 1.64343 11.361 1.97635L12.5864 2.6776C13.231 3.04593 13.4506 3.87468 13.0823 4.51218C12.4377 5.62426 12.9618 6.53093 14.2439 6.53093C14.9806 6.53093 15.5898 7.13301 15.5898 7.87676V9.12343C15.5898 9.8601 14.9877 10.4693 14.2439 10.4693C12.9618 10.4693 12.4377 11.3759 13.0823 12.488C13.4506 13.1326 13.231 13.9543 12.5864 14.3226L11.361 15.0238C10.8014 15.3568 10.0789 15.1584 9.74602 14.5988L9.6681 14.4643C9.0306 13.3522 7.98227 13.3522 7.33768 14.4643L7.25977 14.5988C6.92685 15.1584 6.20435 15.3568 5.64477 15.0238L4.41935 14.3226C3.77477 13.9543 3.55518 13.1255 3.92352 12.488C4.5681 11.3759 4.04393 10.4693 2.76185 10.4693C2.0181 10.4693 1.41602 9.8601 1.41602 9.12343Z" stroke="#1D3042" stroke-miterlimit="10" stroke-linecap="round" stroke-linejoin="round"/>
</svg>
