<svg width="20" height="23" viewBox="0 0 20 23" fill="none" xmlns="http://www.w3.org/2000/svg">
                        <g clip-path="url(#clip0_773_5005)">
                            <path
                                d="M16.9633 17.4298C16.6861 17.2168 16.4027 16.4364 16.2293 15.3301C16.0761 14.352 16.0249 13.352 16.0265 12.6628V10.2727C16.0266 6.75822 13.1565 3.90918 9.61597 3.90918C6.07548 3.90918 3.20536 6.75822 3.20536 10.2727V12.6643C3.20701 13.352 3.15585 14.352 3.00256 15.3301C2.82917 16.4364 2.5458 17.2168 2.27006 17.4287C1.65186 17.906 1.82037 18.9117 2.63167 19.0924C3.63124 19.3023 4.63828 19.4665 5.64948 19.5853C5.92478 21.5154 7.59573 23.0001 9.61605 23.0001C11.6362 23.0001 13.3071 21.5156 13.5825 19.5857C14.591 19.4673 15.5948 19.3036 16.5907 19.0945C17.4115 18.9117 17.5801 17.906 16.9633 17.4298ZM9.61605 21.4092C8.54008 21.4092 7.6292 20.7073 7.32254 19.7397C8.85015 19.843 10.3829 19.8431 11.9095 19.74C11.6027 20.7074 10.6919 21.4092 9.61605 21.4092ZM12.8204 18.0686C12.7898 18.068 12.7588 18.0691 12.7276 18.0721C10.6582 18.2723 8.57392 18.2723 6.50451 18.0721C6.47424 18.0692 6.44426 18.0681 6.41459 18.0685C5.60231 17.9878 4.79254 17.8764 3.98736 17.7341C4.26126 17.1719 4.44964 16.4461 4.58621 15.5746C4.75494 14.4979 4.8099 13.4243 4.80806 12.6553V10.2728C4.80806 7.63688 6.96063 5.50011 9.61601 5.50011C12.2714 5.50011 14.424 7.63688 14.424 10.2728V12.6605C14.4221 13.4244 14.477 14.4979 14.6458 15.5747C14.7824 16.4462 14.9707 17.1719 15.245 17.7344C14.4409 17.8765 13.6321 17.9879 12.8204 18.0686Z"
                                fill="#236BFF" />
                        </g>
                        <path
                            d="M13.9438 9.68182C16.3479 9.68182 18.3094 7.74526 18.3094 5.34091C18.3094 2.93655 16.3479 1 13.9438 1C11.5396 1 9.57812 2.93655 9.57812 5.34091C9.57812 7.74526 11.5396 9.68182 13.9438 9.68182Z"
                            fill="#FC4017" stroke="white" stroke-width="2" />
                        <defs>
                            <clipPath id="clip0_773_5005">
                                <rect width="19.2321" height="19.0909" fill="white" transform="translate(0 3.90918)" />
                            </clipPath>
                        </defs>
                    </svg>