<svg width="1920" height="454" viewBox="0 0 1920 454" fill="none" xmlns="http://www.w3.org/2000/svg">
<g opacity="0.5">
<path d="M2025.4 404.597C2025.4 404.597 1854.31 343.374 1853.86 225.734C1853.42 108.095 1984.14 -70.4981 1984.14 -70.4981" stroke="#E5EDFD" stroke-width="2"/>
<path d="M1992.34 414.383C1992.34 414.383 1821.24 353.159 1820.8 235.519C1820.36 117.88 1951.07 -60.7129 1951.07 -60.7129" stroke="#E5EDFD" stroke-width="2"/>
<path d="M1959.2 420.045C1959.2 420.045 1788.11 358.821 1787.67 241.182C1787.22 123.542 1917.94 -55.0503 1917.94 -55.0503" stroke="#E5EDFD" stroke-width="2"/>
<path d="M1929.4 424.596C1929.4 424.596 1758.31 363.373 1757.86 245.733C1757.42 128.094 1888.14 -50.499 1888.14 -50.499" stroke="#E5EDFD" stroke-width="2"/>
<path d="M1896.34 434.382C1896.34 434.382 1725.24 373.158 1724.8 255.518C1724.36 137.879 1855.07 -40.7139 1855.07 -40.7139" stroke="#E5EDFD" stroke-width="2"/>
<path d="M1863.2 440.044C1863.2 440.044 1692.11 378.82 1691.67 261.181C1691.22 143.541 1821.94 -35.0513 1821.94 -35.0513" stroke="#E5EDFD" stroke-width="2"/>
</g>
<path d="M413.5 -86C413.5 -86 392.5 94.5 278 121.5C163.5 148.5 -40 61.5 -40 61.5" stroke="#ECF2FE" stroke-width="2"/>
<path d="M430.5 -56C430.5 -56 409.5 124.5 295 151.5C180.5 178.5 -23 91.5 -23 91.5" stroke="#ECF2FE" stroke-width="2"/>
<path d="M443.5 -25C443.5 -25 422.5 155.5 308 182.5C193.5 209.5 -10 122.5 -10 122.5" stroke="#ECF2FE" stroke-width="2"/>
</svg>
