<svg width="17" height="17" viewBox="0 0 17 17" fill="none" xmlns="http://www.w3.org/2000/svg">
<path d="M10.8084 15.7604H6.19003C2.71211 15.7604 1.22461 14.2729 1.22461 10.795V10.7029C1.22461 7.55794 2.46419 6.04211 5.24086 5.78003C5.52419 5.75878 5.79336 5.97128 5.82169 6.2617C5.85003 6.55211 5.63753 6.81419 5.34003 6.84253C3.11586 7.04794 2.28711 8.09628 2.28711 10.71V10.8021C2.28711 13.685 3.30711 14.705 6.19003 14.705H10.8084C13.6913 14.705 14.7113 13.685 14.7113 10.8021V10.71C14.7113 8.08211 13.8684 7.03378 11.6017 6.84253C11.3113 6.81419 11.0917 6.5592 11.12 6.26878C11.1484 5.97836 11.3963 5.75878 11.6938 5.78711C14.5129 6.02795 15.7738 7.55086 15.7738 10.7171V10.8092C15.7738 14.2729 14.2863 15.7604 10.8084 15.7604Z" fill="#B9B3C6"/>
<path d="M8.5 11.1563C8.20958 11.1563 7.96875 10.9155 7.96875 10.625V2.56421C7.96875 2.27379 8.20958 2.03296 8.5 2.03296C8.79042 2.03296 9.03125 2.27379 9.03125 2.56421V10.625C9.03125 10.9155 8.79042 11.1563 8.5 11.1563Z" fill="#B9B3C6"/>
<path d="M10.873 4.6751C10.7384 4.6751 10.6038 4.62552 10.4976 4.51927L8.50005 2.52177L6.50255 4.51927C6.29714 4.72468 5.95714 4.72468 5.75172 4.51927C5.5463 4.31385 5.5463 3.97385 5.75172 3.76843L8.12464 1.39552C8.33005 1.1901 8.67005 1.1901 8.87547 1.39552L11.2484 3.76843C11.4538 3.97385 11.4538 4.31385 11.2484 4.51927C11.1492 4.62552 11.0076 4.6751 10.873 4.6751Z" fill="#B9B3C6"/>
</svg>
