<svg width="96" height="16" viewBox="0 0 96 16" fill="none"
                                xmlns="http://www.w3.org/2000/svg">
                                <path
                                    d="M11.3494 10.9276C11.0934 11.5498 10.7094 12.1081 10.2455 12.5867C10.3255 12.7941 10.3735 13.0015 10.3895 13.2248C10.5014 14.2777 12.8373 14.1341 12.9333 13.9267C13.0453 13.7034 12.7733 11.6455 11.3494 10.9276ZM6.69369 14.1182C6.38971 14.1182 6.08572 14.0862 5.79774 14.0384C5.78174 14.9956 6.4697 15.8251 7.41364 15.9846C7.81361 16.0325 8.21359 15.9687 8.56557 15.7932H8.45357C7.60563 15.6496 7.31765 14.9158 7.41364 14.0543C7.17366 14.0862 6.93367 14.1022 6.69369 14.1182ZM0.422084 13.8629C0.534077 14.0703 2.82193 14.2617 2.93392 13.2088C2.94992 12.9855 2.99792 12.7781 3.07792 12.5707C2.59795 12.0922 2.22997 11.5338 1.95799 10.9117C0.534077 11.6295 0.310091 13.6715 0.422084 13.8629ZM2.00598 6.46085C2.29396 5.82274 2.70994 5.24844 3.20591 4.76986C2.11798 3.87651 0.262094 3.79675 0.0861055 3.90842C-0.0898834 4.02008 -0.0898832 6.30132 1.01405 6.26942C1.36602 6.26942 1.702 6.33323 2.00598 6.46085ZM8.19759 2.53648C8.19759 2.28124 8.45357 1.85051 8.45357 1.64313C8.45357 1.43574 7.76562 1.08478 7.47764 0.797636C7.17366 0.510487 6.90167 0 6.69369 0H6.67769C6.4537 0 6.16572 0.526441 5.87774 0.813589C5.57376 1.10074 4.9018 1.4517 4.9018 1.65908C4.9018 1.86647 5.15778 2.29719 5.15778 2.55243C5.12579 2.79173 5.06179 3.03101 4.98179 3.25435C4.9498 3.36602 5.04579 3.41388 5.12579 3.63722H5.17378C6.14972 3.31816 7.20565 3.31816 8.19759 3.63722H8.24559C8.34158 3.41388 8.42158 3.38197 8.38958 3.25435C8.27759 3.03101 8.22959 2.79172 8.19759 2.53648ZM10.6134 6.81181C10.3735 6.25346 10.0055 5.74298 9.5575 5.31225C8.86955 4.64224 7.9576 4.22747 6.98167 4.14771C6.85367 4.14771 6.74168 4.13175 6.64569 4.13175C6.54969 4.13175 6.4377 4.13175 6.30971 4.14771C5.34977 4.22747 4.43783 4.64224 3.73387 5.31225C3.2859 5.74298 2.91793 6.25346 2.67794 6.81181C2.14997 8.02421 2.13398 9.4121 2.64594 10.6245C2.85393 11.135 3.15791 11.6136 3.54189 12.0124C4.14985 12.6824 4.9658 13.1291 5.86174 13.3046C6.11772 13.3524 6.3897 13.3843 6.64569 13.3843H6.96567C8.0376 13.3046 9.02954 12.81 9.74949 12.0283C10.1335 11.6295 10.4374 11.1509 10.6454 10.6405C11.1574 9.4121 11.1414 8.02421 10.6134 6.81181ZM13.2053 3.90842C13.0293 3.79675 11.1734 3.86056 10.0855 4.76986C10.5974 5.24844 10.9974 5.82274 11.2854 6.46085C11.5894 6.33323 11.9254 6.26942 12.2613 6.28537C13.3973 6.31727 13.4133 4.05199 13.2053 3.90842ZM94.2721 11.0712C94.2721 11.8369 93.4722 12.2517 92.6082 12.2517C91.1523 12.2517 90.7363 10.8 90.7363 10.8L89.2164 11.47C89.2164 11.47 89.7124 13.847 92.6082 13.847C94.7201 13.847 96 12.6665 96 11.0552C96 9.22067 94.6881 8.59851 93.1682 8.00826C91.8083 7.46587 91.1363 7.17872 91.1363 6.38109C91.1363 5.75893 91.6963 5.24844 92.6722 5.24844C94.0161 5.24844 94.4641 6.57252 94.4641 6.57252L95.968 5.9025C95.968 5.9025 95.376 3.63722 92.6722 3.63722C90.5603 3.63722 89.4084 4.92939 89.4084 6.38109C89.4084 8.13589 90.8963 8.93352 92.3842 9.49187C93.5522 9.92259 94.2721 10.2735 94.2721 11.0712ZM83.6008 9.92259C83.6008 11.3264 82.8808 12.2836 81.4729 12.2836C80.065 12.2836 79.3451 11.3424 79.3451 9.92259V3.8127H77.6492V10.114C77.6492 12.2836 79.0571 13.8629 81.4729 13.8629C83.8728 13.8629 85.2967 12.2836 85.2967 10.114V3.8127H83.6008V9.92259ZM71.9055 13.6874H73.9214L70.7056 8.61447L73.7614 3.8127H71.8255L69.6977 7.29039L67.5858 3.8127H65.5699L68.6418 8.56661L65.41 13.6874H67.3458L69.6177 9.92259L71.9055 13.6874ZM58.2424 5.79083L59.7303 9.87473H56.7545L58.2424 5.79083ZM53.5227 13.6874H55.3466L56.1945 11.4221H60.3543L61.2022 13.6874H63.0421L59.2663 3.8127H57.3465L53.5227 13.6874ZM45.1712 13.6874H51.1229V12.0762H46.8671V3.8127H45.1712V13.6874ZM37.2197 5.77488L38.7076 9.85878H35.7318L37.2197 5.77488ZM32.5 13.6874H34.3079L35.1559 11.4221H39.3156L40.1476 13.6874H41.9874L38.2117 3.8127H36.2918L32.5 13.6874ZM25.8925 12.2357C23.9566 12.2357 22.3727 10.6883 22.3727 8.75804C22.3727 6.82776 23.9246 5.24844 25.8765 5.24844C26.8684 5.23249 27.8123 5.63131 28.5003 6.34918L29.6202 5.13677C29.6202 5.13677 28.4203 3.63722 25.8925 3.63722C22.9487 3.65317 20.6288 5.83869 20.6288 8.75804C20.6288 11.6774 22.9487 13.8629 25.8765 13.8629C28.2763 13.8629 29.6842 12.81 29.6842 12.81V8.13589H25.7165V9.7152H28.0043V11.821C28.0203 11.821 27.3004 12.2517 25.8925 12.2357Z"
                                    fill="#236BFF" />
                            </svg>