<svg width="18" height="18" viewBox="0 0 18 18" fill="none" xmlns="http://www.w3.org/2000/svg">
<path d="M8.91667 16.8333C13.2889 16.8333 16.8333 13.2889 16.8333 8.91667C16.8333 4.54441 13.2889 1 8.91667 1C4.54441 1 1 4.54441 1 8.91667C1 13.2889 4.54441 16.8333 8.91667 16.8333Z" stroke="#1D3042" stroke-miterlimit="10" stroke-linecap="round" stroke-linejoin="round"/>
<path d="M8.91562 11.1968C8.1952 11.1968 7.60938 10.611 7.60938 9.89057V7.93518C7.60938 7.21476 8.1952 6.62891 8.91562 6.62891C9.63604 6.62891 10.2219 7.21476 10.2219 7.93518V9.89057C10.2219 10.611 9.63604 11.1968 8.91562 11.1968Z" stroke="#1D3042" stroke-linecap="round"/>
<path d="M12.854 10.0805C12.6956 12.123 10.9856 13.7222 8.91146 13.7222C6.72646 13.7222 4.95312 11.9488 4.95312 9.76384V8.06966C4.95312 5.88466 6.72646 4.11133 8.91146 4.11133C10.9619 4.11133 12.6481 5.6709 12.846 7.6659" stroke="#1D3042" stroke-linecap="round"/>
</svg>
