<svg width="143" height="27" viewBox="0 0 143 27" fill="none" xmlns="http://www.w3.org/2000/svg">
<path d="M61.6707 19.3534H58.7904V24.5194H55V7.30164H62.0362C66.1418 7.30164 68.6281 9.73779 68.6281 13.2559V13.306C68.6281 17.2827 65.5256 19.3534 61.6707 19.3534ZM64.7876 13.3275C64.7876 11.6294 63.6053 10.7194 61.7137 10.7194H58.7904V15.9858H61.7925C63.6841 15.9858 64.7947 14.8537 64.7947 13.3777V13.3275H64.7876Z" fill="#1D3042"/>
<path d="M80.9285 24.5194L77.2385 19.0095H74.265V24.5194H70.4746V7.30164H78.3419C82.3974 7.30164 84.8335 9.44401 84.8335 12.9836V13.0337C84.8335 15.8138 83.336 17.5621 81.1435 18.3718L85.3494 24.5194H80.9285ZM81.0002 13.177C81.0002 11.5506 79.8681 10.7194 78.0267 10.7194H74.265V15.6633H78.1055C79.9469 15.6633 81.0074 14.6817 81.0074 13.2272V13.177H81.0002Z" fill="#1D3042"/>
<path d="M87.1719 24.5194V7.30164H90.9551V24.5194H87.1719Z" fill="#1D3042"/>
<path d="M101.577 24.8125C96.5117 24.8125 92.75 20.9004 92.75 15.9564V15.9063C92.75 11.0125 96.44 7 101.728 7C104.974 7 106.915 8.08193 108.513 9.65826L106.106 12.4383C104.78 11.2346 103.426 10.4966 101.706 10.4966C98.8045 10.4966 96.7123 12.9041 96.7123 15.8561V15.9063C96.7123 18.8583 98.7544 21.3159 101.706 21.3159C103.677 21.3159 104.881 20.5278 106.235 19.3025L108.642 21.7387C106.865 23.6303 104.895 24.8125 101.577 24.8125Z" fill="#1D3042"/>
<path d="M110.494 24.5194V7.30164H123.485V10.6692H114.263V14.1587H122.381V17.5263H114.263V21.1447H123.606V24.5123H110.494V24.5194Z" fill="#236BFF"/>
<path d="M135.857 17.6544V24.5186H132.067V17.7332L125.453 7.30798H129.881L133.987 14.2223L138.171 7.30798H142.477L135.857 17.6544Z" fill="#236BFF"/>
<path d="M43.8582 13.6132L33.8804 26.3635C33.5669 26.7651 33.0869 26.9953 32.5823 26.9953H24.99L23.8438 15.3276L27.6252 10.4929C28.9037 8.8569 30.8679 7.90173 32.9399 7.90173H41.076C44.0248 7.90663 45.6755 11.2963 43.8582 13.6132Z" fill="url(#paint0_linear_773_5022)"/>
<path d="M23.8622 15.538L19.0472 9.20444C18.3761 8.34723 17.5434 7.62228 16.6029 7.07367L16.1621 6.81896L5.02334 0.338497C3.66161 -0.455029 1.91781 0.206242 1.42308 1.70023L0.27688 5.13884C-0.296222 6.86794 0.0319628 8.76849 1.15368 10.1988L12.459 24.6439C13.6199 26.1281 15.4029 27 17.2936 27H32.5812L23.8622 15.538ZM10.2253 10.2135C9.72572 11.0805 8.3395 11.2176 7.12961 10.5172C5.91973 9.81673 5.34663 8.55296 5.84626 7.68596C6.34588 6.81896 7.73211 6.68181 8.94199 7.38227C10.1519 8.07783 10.725 9.34649 10.2253 10.2135Z" fill="#236BFF"/>
<defs>
<linearGradient id="paint0_linear_773_5022" x1="34.2305" y1="7.90173" x2="34.2305" y2="26.9953" gradientUnits="userSpaceOnUse">
<stop stop-color="#236BFF"/>
<stop offset="1" stop-color="#0557FF"/>
</linearGradient>
</defs>
</svg>
