<svg width="98" height="13" viewBox="0 0 98 13" fill="none"
                                xmlns="http://www.w3.org/2000/svg">
                                <path fill-rule="evenodd" clip-rule="evenodd"
                                    d="M84.9372 4.76047L84.9665 4.57567C84.9809 4.50153 84.9599 4.42407 84.9123 4.36542C84.8631 4.30788 84.7917 4.27358 84.7165 4.27358H83.3889C83.2661 4.27192 83.1588 4.35878 83.1355 4.48051L83.0985 4.68135L81.6801 12.4345C81.6674 12.5092 81.6901 12.5872 81.7399 12.6453C81.7902 12.7029 81.8666 12.7372 81.9429 12.7355L82.5978 12.7256H83.2135C83.3363 12.7256 83.4387 12.6398 83.463 12.522L84.436 7.71004C84.7574 6.49059 85.565 6.12764 86.2797 6.02196C86.3179 6.01698 86.4622 6.01919 86.4927 5.99928C86.0031 8.91675 85.4234 12.3709 85.4135 12.4285C85.4007 12.5015 85.4223 12.5773 85.4704 12.6354C85.5186 12.6924 85.591 12.7256 85.664 12.7256H87.094C87.2051 12.7256 87.3047 12.6542 87.3368 12.5463C87.3827 12.4058 87.7246 10.4233 87.9298 9.23268C88.4592 10.0355 90.1496 12.6083 90.1496 12.6083C90.1972 12.6802 90.2774 12.7228 90.3632 12.7228L92.0719 12.7256C92.1029 12.7256 92.1311 12.7184 92.1598 12.709C92.1963 12.7256 92.2367 12.7366 92.2766 12.7355L93.7192 12.7256C93.8437 12.725 93.9482 12.6354 93.9687 12.5153C93.9687 12.5153 95.0136 6.47898 95.0822 6.08282C95.418 6.08227 96.7384 6.08061 96.7384 6.08061C96.8623 6.08061 96.9685 5.99098 96.9901 5.8687L97.213 4.57069C97.2158 4.55631 97.2174 4.54303 97.2174 4.52754C97.2174 4.46889 97.1958 4.41024 97.1582 4.36432C97.1095 4.30678 97.0382 4.27358 96.9613 4.27358H95.33C95.4097 3.8149 95.7001 2.1224 95.7001 2.1224C95.7017 2.10747 95.7034 2.09308 95.7034 2.07925C95.7034 2.01783 95.6829 1.95974 95.6437 1.91437C95.5961 1.85572 95.5231 1.82363 95.4489 1.82363H94.0152C93.8912 1.82363 93.785 1.91326 93.7635 2.03498C93.7635 2.03498 93.4443 3.92667 93.3851 4.27358C93.2557 4.27745 93.1218 4.28022 93.1218 4.28022L92.8983 4.28188L92.661 4.27745C92.5697 4.27524 92.4884 4.32227 92.4408 4.39585C92.3949 4.32559 92.3175 4.28022 92.2306 4.28022L90.918 4.27745H90.5335C90.4622 4.27745 90.3952 4.30788 90.3455 4.35934C90.3455 4.35934 89.0251 5.87313 88.3236 6.63279C88.5289 5.42939 89.0948 2.12572 89.0948 2.12572C89.0964 2.11023 89.0981 2.09695 89.0981 2.08146C89.0981 2.02226 89.0765 1.96361 89.0372 1.91824C88.9891 1.85959 88.9177 1.82695 88.8425 1.82695L87.4142 1.82363C87.2887 1.82308 87.1814 1.91216 87.1609 2.03443C87.1277 2.2314 86.9795 3.11057 86.7809 4.28188C86.7787 4.27801 86.777 4.27524 86.7742 4.27192C86.7239 4.21272 86.6509 4.18173 86.5734 4.1845C85.965 4.2022 85.4157 4.45174 84.9372 4.76047ZM92.0918 12.019C91.5038 11.074 89.7857 8.31533 89.6346 8.07189C89.8332 7.83729 91.9247 5.2883 92.3496 4.78924L92.1615 5.77741C92.1471 5.85266 92.1681 5.93012 92.2168 5.98766C92.2655 6.04575 92.3369 6.08061 92.4137 6.08061H93.0654C92.9912 6.53098 92.3097 10.6845 92.0918 12.019ZM43.05 8.71923C42.7518 9.76051 41.7661 10.7514 40.8041 10.9849C40.0684 11.0823 39.5285 11.0132 39.1524 10.7697C38.7563 10.4975 38.5577 10.025 38.4039 9.5984C38.3774 9.44569 38.3636 9.29188 38.3636 9.14194C38.3636 8.19361 38.8708 7.27958 39.804 6.57967C40.3406 6.20399 41.0691 6.06235 41.7085 6.20897C42.0692 6.29196 42.5626 6.50664 42.8707 7.06435C43.0433 7.367 43.1352 7.75043 43.1352 8.12445C43.1352 8.33138 43.1064 8.53443 43.05 8.71923ZM35.7775 2.02669L35.4689 3.70314C35.4545 3.77783 35.4749 3.85585 35.5236 3.91616C35.5723 3.9737 35.6442 4.008 35.7222 4.008H37.2141C37.3369 4.008 37.4436 3.92058 37.4658 3.79775L37.7462 2.13624C37.7584 2.0621 37.7385 1.98408 37.6909 1.92599C37.6422 1.86789 37.5703 1.83359 37.4962 1.83304L36.0298 1.82086C35.907 1.81976 35.8013 1.90718 35.7775 2.02669ZM32.5548 8.71923C32.6107 8.53443 32.6378 8.33138 32.6378 8.12445C32.6378 7.75043 32.547 7.367 32.375 7.06435C32.0652 6.50664 31.5724 6.29196 31.2112 6.20897C30.5734 6.06235 29.8432 6.20399 29.3066 6.57967C28.3751 7.27958 27.8662 8.19361 27.8662 9.14194C27.8662 9.29188 27.8806 9.44569 27.9071 9.5984C28.0609 10.025 28.2595 10.4975 28.6561 10.7697C29.0322 11.0132 29.5727 11.0823 30.3073 10.9849C31.2698 10.7514 32.2544 9.76051 32.5548 8.71923ZM20.3166 7.52303C20.9273 7.51749 23.8519 7.48983 24.2728 7.48595C24.2424 7.20267 24.093 6.9371 23.7805 6.62394C23.4353 6.32848 22.9624 6.18961 22.2908 6.18573C21.5634 6.28754 20.7138 6.76613 20.3166 7.52303ZM80.2723 8.71923C79.9747 9.76051 78.9896 10.7514 78.0265 10.9849C77.2902 11.0823 76.7504 11.0132 76.3764 10.7697C75.9792 10.4975 75.7801 10.025 75.6263 9.5984C75.6009 9.44569 75.5854 9.29188 75.5854 9.14194C75.5854 8.19361 76.0932 7.27958 77.0275 6.57967C77.5624 6.20399 78.2926 6.06235 78.9315 6.20897C79.2916 6.29196 79.7861 6.50664 80.0937 7.06435C80.2646 7.367 80.357 7.75043 80.357 8.12445C80.357 8.33138 80.3288 8.53443 80.2723 8.71923ZM0 12.5944V12.4356C0.00774429 12.4191 0.0177012 12.403 0.030424 12.3892L10.6606 0.135002C10.6976 0.0940586 10.7496 0.069714 10.8061 0.069714H12.5225C12.5789 0.069714 12.6332 0.0957184 12.6702 0.139981C12.6979 0.174285 12.7139 0.219101 12.7139 0.260598C12.7139 0.27277 12.7111 0.287155 12.7089 0.299881C12.7089 0.299881 11.3775 6.87679 11.1302 8.06635C11.9682 7.11913 18.1559 0.135002 18.1559 0.135002C18.1913 0.0923987 18.2444 0.069714 18.2981 0.069714H19.9133C19.9725 0.069714 20.0284 0.0962717 20.0649 0.142748C20.1009 0.189224 20.1141 0.250638 20.0992 0.307074L18.4038 7.19216C18.4176 7.16671 18.4298 7.14181 18.4425 7.11747C19.2495 5.5478 20.7829 4.44454 22.4424 4.24149C22.4474 4.24038 22.454 4.24038 22.4607 4.24038C23.9614 4.16403 25.1197 4.73225 25.8145 5.87977C25.8184 5.88585 25.8211 5.89139 25.8256 5.89803C26.075 6.3993 26.2609 7.07265 26.2941 7.76592C26.5773 6.93931 27.0807 6.17467 27.7804 5.52954C28.9664 4.42629 30.4124 3.99196 31.8539 4.30844C31.8689 4.31176 31.8866 4.31784 31.9015 4.32393L32.0354 4.38147C32.3551 4.51924 32.703 4.67194 32.9973 4.93586C33.1533 4.2022 33.6102 2.02669 33.6102 2.02669C33.6357 1.90884 33.7402 1.82363 33.8614 1.82363H35.1867C35.2636 1.82363 35.3355 1.85793 35.3842 1.91492C35.4329 1.97357 35.4534 2.05103 35.4401 2.12572L33.5068 12.5524C33.4836 12.6741 33.3779 12.7615 33.254 12.7615L31.9391 12.7577C31.8622 12.7577 31.7892 12.7256 31.7405 12.6675C31.7018 12.621 31.6813 12.5629 31.6813 12.5037C31.6813 12.4877 31.683 12.4716 31.6863 12.4567C31.6863 12.4567 31.7195 12.2818 31.7405 12.1662C30.6685 12.8279 29.5832 13.0858 28.5665 12.9015C27.4037 12.6702 26.3212 11.5332 26.1032 10.3149C26.0435 9.98847 26.0169 9.66147 26.0203 9.33946C25.9744 9.38096 25.9135 9.40586 25.8482 9.40586C25.8482 9.40586 20.0323 9.40807 19.743 9.40862C19.7363 9.43352 19.7325 9.45621 19.7325 9.48276C19.7325 9.57627 19.7645 9.69744 19.8066 9.83576C19.8066 9.83576 19.8243 9.89883 19.8326 9.92595C20.1224 10.638 20.8178 11.0845 21.6066 11.0657C22.391 11.048 23.1178 10.6723 23.7634 9.95029C23.8109 9.89551 23.8812 9.86453 23.9531 9.86453H25.3144C25.4024 9.86453 25.4848 9.9099 25.5307 9.98459C25.5783 10.0587 25.5844 10.1522 25.5473 10.2314C24.7745 11.8564 23.0415 12.948 21.2227 12.948C19.9576 12.8987 18.8955 12.2829 18.3042 11.2533C18.0099 10.7044 17.8705 10.0233 17.8788 9.32618L17.08 12.5701C17.0585 12.6575 16.9805 12.7173 16.8925 12.7173H15.1705C15.1124 12.7173 15.0566 12.6902 15.0212 12.6437C14.9929 12.6088 14.9786 12.5668 14.9786 12.5253C14.9786 12.5092 14.9808 12.4954 14.9835 12.4805C15.6562 9.67973 16.5993 5.69884 16.9417 4.12364C16.1181 5.08802 9.66377 12.6382 9.66377 12.6382C9.62837 12.6808 9.57582 12.7045 9.51995 12.7045L8.06513 12.7173C8.00649 12.7173 7.95228 12.6918 7.91522 12.6453C7.88756 12.6116 7.87207 12.569 7.87207 12.5253C7.87207 12.512 7.87263 12.4982 7.87595 12.4849C8.49162 9.65096 9.35289 5.6153 9.65603 4.04562C8.86224 4.99396 2.46103 12.6492 2.46103 12.6492C2.42396 12.6929 2.36699 12.7184 2.3078 12.7173C1.81106 12.7001 1.43657 12.7023 1.00178 12.7045H0.17314C0.0990163 12.7062 0.0309772 12.6625 0 12.5944ZM82.6388 4.36542C82.5912 4.30788 82.5193 4.27358 82.443 4.27358H81.1165C80.9959 4.27358 80.8902 4.35823 80.8659 4.47663L80.7636 4.97846C80.4687 4.71455 80.175 4.54524 79.754 4.38147L79.6218 4.32393C79.6058 4.31784 79.5897 4.31176 79.5732 4.30844C78.1327 3.99196 76.6856 4.42629 75.5002 5.52954C74.9089 6.07397 74.4603 6.70527 74.1627 7.38526L75.9057 0.307074C75.9201 0.250638 75.9073 0.189224 75.8708 0.142748C75.8349 0.0962717 75.7796 0.069714 75.7204 0.069714H74.1057C74.0493 0.069714 73.9984 0.0923987 73.9619 0.135002C73.9619 0.135002 67.7747 7.11913 66.9367 8.06635C67.1834 6.87679 68.5635 0.299881 68.5635 0.299881C68.5635 0.287155 68.5668 0.27277 68.5668 0.260598C68.5668 0.217995 68.5536 0.174285 68.5243 0.139981C68.4878 0.0957184 68.433 0.069714 68.376 0.069714H66.5921C66.5356 0.069714 66.4831 0.0940586 66.4471 0.135002L57.5368 10.4267C57.3874 8.92837 56.6744 7.29673 56.6744 7.29673C55.4801 4.84955 52.8233 4.05669 51.3164 5.46038L51.3059 5.46259L51.0697 5.63411C52.1628 3.8896 54.9358 3.96706 56.7214 6.02141C56.7214 6.02141 57.5146 6.97527 58.0778 8.39445C58.2277 7.89317 58.3195 7.37419 58.3472 6.84359C57.4178 5.58542 56.3701 4.84678 56.3701 4.84678C54.1149 3.32525 51.4149 3.96816 50.8114 5.93676L50.8037 5.94505L50.6869 6.21118C50.7605 4.15241 53.2 2.83393 55.7722 3.71974C55.7722 3.71974 56.9831 4.16403 58.2055 5.14943C58.1889 5.07086 58.1724 4.9923 58.1508 4.91373C58.0186 4.39364 57.8272 3.90011 57.5799 3.44088C56.1539 2.82342 54.8904 2.70833 54.8904 2.70833C52.1755 2.51966 50.1603 4.42352 50.6217 6.43139L50.6184 6.44191L50.6488 6.73183C49.6846 4.91152 51.1372 2.55175 53.8073 2.03056C53.8073 2.03056 55.047 1.81533 56.5715 2.04273C56.1848 1.63441 55.7434 1.27643 55.2539 0.974336C53.7255 1.1536 52.5854 1.68254 52.5854 1.68254C50.1415 2.87543 49.3472 5.53396 50.7506 7.04222L50.7522 7.05107L50.9248 7.28899C49.1796 6.19459 49.2587 3.42152 51.3109 1.63662C51.3109 1.63662 52.2701 0.836568 53.6967 0.270557C53.1081 0.0940586 52.498 0.00442629 51.8823 0C50.6897 0.907942 49.9933 1.89445 49.9933 1.89445C48.4726 4.1513 49.1143 6.84968 51.0825 7.45442L51.0896 7.46106L51.3574 7.58001C49.2996 7.50587 47.9814 5.06588 48.867 2.49255C48.867 2.49255 49.2747 1.38321 50.1742 0.216888C49.6592 0.35023 49.1718 0.544986 48.7149 0.790092C48.1341 2.17607 48.0257 3.38224 48.0257 3.38224C47.8359 6.09831 49.741 8.11393 51.7485 7.65305L51.7573 7.65581L52.0494 7.62317C50.2289 8.58976 47.8675 7.13573 47.3492 4.46391C47.3492 4.46391 47.1412 3.27047 47.3492 1.78324C46.9155 2.19433 46.536 2.66628 46.2218 3.19301C46.4165 4.65867 46.9138 5.73536 46.9138 5.73536C48.107 8.18144 50.7638 8.97485 52.2712 7.57061L52.2823 7.56839L52.5179 7.39743C51.426 9.14194 48.6519 9.06448 46.8679 7.01013C46.8679 7.01013 45.953 5.86649 45.475 4.53528C45.4756 4.47276 45.4568 4.41301 45.4181 4.36542C45.3688 4.30788 45.2969 4.27358 45.2195 4.27358H43.8946C43.7729 4.27358 43.6684 4.35823 43.643 4.47663C43.643 4.47663 43.5412 4.631 43.4942 4.93586C43.1999 4.67194 42.8514 4.51924 42.5328 4.38147L42.3983 4.32393C42.3828 4.31784 42.3657 4.31176 42.3502 4.30844C40.9103 3.99196 39.4638 4.42629 38.2778 5.52954C37.5775 6.17467 37.0741 6.93931 36.7887 7.76592C36.7887 7.76592 36.7799 7.78694 36.7644 7.82014L37.328 4.57235C37.3402 4.49877 37.3197 4.42186 37.2711 4.36432C37.2213 4.30678 37.1494 4.27303 37.0741 4.27358L35.6603 4.27524C35.5363 4.27634 35.4307 4.36432 35.408 4.48715L33.9471 12.4567C33.9344 12.5314 33.9548 12.6083 34.0035 12.6675C34.0517 12.725 34.1241 12.7577 34.1999 12.7577L35.6901 12.7615C35.8162 12.7615 35.923 12.6713 35.9435 12.548L36.5066 9.30571C36.5127 9.32618 36.5177 9.33946 36.5177 9.33946C36.5127 9.66147 36.5392 9.98847 36.5995 10.3149C36.8186 11.5332 37.8989 12.6702 39.0633 12.9015C40.0789 13.0858 41.1653 12.8279 42.2374 12.1662C42.2163 12.2818 42.1826 12.4567 42.1826 12.4567C42.1798 12.4716 42.1787 12.4877 42.1787 12.5037C42.1787 12.5629 42.1992 12.621 42.2374 12.6675C42.2855 12.7256 42.358 12.7577 42.436 12.7577L43.7508 12.7615C43.8747 12.7615 43.9815 12.6741 44.0031 12.5524L45.1608 6.27979C46.0271 7.3089 47.1605 8.18752 47.1605 8.18752C49.4152 9.71016 52.1135 9.06725 52.7171 7.09921L52.7259 7.09091L52.8432 6.82367C52.7696 8.88245 50.3296 10.2015 47.7568 9.31456C47.7568 9.31456 46.6477 8.90679 45.4789 8.00715C45.4889 8.04975 45.4972 8.09402 45.5082 8.13717C45.6471 8.67607 45.8479 9.18676 46.1079 9.66147C47.4675 10.2214 48.6402 10.3271 48.6402 10.3271C51.3535 10.5169 53.3692 8.61189 52.9079 6.60402L52.9118 6.59351L52.8797 6.30248C53.845 8.12279 52.3918 10.4864 49.7211 11.0037C49.7211 11.0037 48.5539 11.2079 47.0908 11.0104C47.441 11.3794 47.8359 11.7103 48.2718 11.9936C49.7881 11.8104 50.9115 11.2876 50.9115 11.2876C53.3565 10.0953 54.1514 7.43616 52.7475 5.92956L52.7447 5.91794L52.5732 5.6828C54.3185 6.77609 54.2405 9.54805 52.1877 11.3346C52.1877 11.3346 51.2086 12.1479 49.7615 12.7151C50.1609 12.8495 50.5708 12.9452 50.9862 13H51.5781C52.7939 12.0832 53.5031 11.0757 53.5031 11.0757C55.0254 8.81937 54.3837 6.11934 52.415 5.51626L52.4067 5.50796L52.1407 5.39011C54.199 5.4648 55.5172 7.90479 54.6316 10.4781C54.6316 10.4781 54.189 11.6821 53.2083 12.9032C53.2874 12.8855 53.3631 12.8694 53.4411 12.849C53.9384 12.7228 54.4064 12.5386 54.8418 12.3139C55.4502 10.8981 55.562 9.64709 55.562 9.64709C55.7528 6.93433 53.8472 4.9165 51.8386 5.37794L51.8303 5.37572L51.5399 5.40671C53.3587 4.44178 55.7213 5.89526 56.2407 8.56708C56.2407 8.56708 56.5405 9.79371 56.3159 11.2466C56.2728 11.4563 56.1848 11.7606 56.0156 12.0849C55.9641 12.1751 55.9 12.2818 55.8225 12.4058C55.8242 12.4041 55.8247 12.4025 55.8247 12.4025C55.8242 12.4058 55.8209 12.4085 55.8186 12.4124C55.817 12.4163 55.817 12.4168 55.817 12.4196C55.7866 12.4716 55.7799 12.5363 55.8059 12.5944C55.8363 12.6625 55.9049 12.7062 55.9807 12.7045H56.8083C57.243 12.7023 57.617 12.7001 58.1143 12.7173C58.1735 12.7184 58.2299 12.6929 58.268 12.6492C58.268 12.6492 64.6693 4.99396 65.4625 4.04562C65.1588 5.6153 64.2981 9.65096 63.6819 12.4849C63.6796 12.4982 63.6785 12.512 63.6785 12.5253C63.6785 12.569 63.6929 12.6116 63.72 12.6453C63.7565 12.6918 63.8119 12.7173 63.8716 12.7173L65.327 12.7045C65.3823 12.7045 65.4348 12.6808 65.4708 12.6382C65.4708 12.6382 71.9234 5.08802 72.7493 4.12364C72.4053 5.69884 71.4632 9.67973 70.7917 12.4805C70.7873 12.4954 70.785 12.5092 70.785 12.5253C70.785 12.5668 70.7994 12.6088 70.8265 12.6437C70.8636 12.6902 70.9178 12.7173 70.9775 12.7173H72.699C72.7869 12.7173 72.8649 12.6575 72.886 12.5701L73.6311 9.54694L73.7345 9.12202C73.7378 9.24319 73.7395 9.33946 73.7395 9.33946C73.7362 9.66147 73.7627 9.98847 73.823 10.3149C74.0404 11.5332 75.1229 12.6702 76.2851 12.9015C77.3008 13.0858 78.3883 12.8279 79.4603 12.1662C79.4387 12.2818 79.4055 12.4567 79.4055 12.4567C79.4028 12.4716 79.4011 12.4877 79.4011 12.5037C79.4011 12.5629 79.421 12.621 79.4586 12.6675C79.509 12.7256 79.5815 12.7577 79.6567 12.7577L80.9726 12.7615C81.0977 12.7615 81.2033 12.6741 81.2254 12.5524L82.4136 6.23719L82.6985 4.53528C82.6996 4.47276 82.6803 4.41301 82.6388 4.36542Z"
                                    fill="#236BFF" />
                            </svg>