<svg width="82" height="14" viewBox="0 0 82 14" fill="none"
                                xmlns="http://www.w3.org/2000/svg">
                                <path
                                    d="M10.1244 6.26809V9.94015H7.97361V6.47792C7.97361 5.40253 7.58018 5.16647 7.10806 5.16647C6.63594 5.16647 6.13758 5.45499 6.13758 6.68775V9.91391H3.9868V6.4517C3.9868 5.37631 3.59337 5.14025 3.12125 5.14025C2.64913 5.14025 2.15078 5.45499 2.15078 6.66153V9.88769H0V3.46159H2.15078V4.11731C2.6229 3.56651 3.04257 3.25176 3.82944 3.25176C4.51139 3.22553 5.16711 3.54028 5.56054 4.11731C6.08512 3.54028 6.81953 3.22553 7.6064 3.25176C8.94407 3.25176 10.1244 4.24846 10.1244 6.26809Z"
                                    fill="#236BFF" />
                                <path
                                    d="M11.3066 1.3111C11.3066 0.602914 11.8837 0.0258789 12.5918 0.0258789C13.3 0.0258789 13.8771 0.602914 13.8771 1.3111C13.8771 2.01928 13.3 2.59632 12.5918 2.59632C11.8837 2.59632 11.3066 2.01928 11.3066 1.3111ZM11.5165 3.46187H13.6672V9.94043H11.5165V3.46187Z"
                                    fill="#236BFF" />
                                <path
                                    d="M19.6967 7.63119L20.7983 9.07378C20.1688 9.75573 19.3032 10.1492 18.3852 10.1229C16.1295 10.1229 14.7656 8.57543 14.7656 6.66071C14.7656 4.746 16.1295 3.19849 18.3852 3.19849C19.3032 3.19849 20.195 3.59192 20.8245 4.24764L19.6967 5.69024C19.3819 5.32303 18.936 5.1132 18.4901 5.1132C17.6508 5.08697 16.9426 5.71646 16.9164 6.55579C16.8902 7.39512 17.5197 8.1033 18.359 8.12953C18.4115 8.12953 18.4377 8.12953 18.4901 8.12953C18.936 8.20821 19.3819 7.99839 19.6967 7.63119Z"
                                    fill="#236BFF" />
                                <path
                                    d="M26.5465 3.25146V5.61207C26.1531 5.50716 25.7334 5.50716 25.3662 5.61207C24.7367 5.79567 24.1859 6.47762 24.1859 7.553V9.93985H22.0352V3.46129H24.1859V4.66782C24.6056 3.72358 25.3138 3.33015 26.5465 3.25146Z"
                                    fill="#236BFF" />
                                <path
                                    d="M34.6566 6.68781C34.6566 8.60253 33.0566 10.15 30.9846 10.15C28.8076 10.15 27.3125 8.60253 27.3125 6.68781C27.3125 4.7731 28.7813 3.22559 30.9846 3.22559C33.0304 3.25181 34.6566 4.7731 34.6566 6.68781ZM32.4796 6.68781C32.4796 5.84848 31.7976 5.16654 30.9583 5.16654C30.119 5.16654 29.437 5.84848 29.437 6.68781C29.437 7.52714 30.119 8.20909 30.9583 8.20909C31.7976 8.20909 32.4796 7.52714 32.4796 6.68781Z"
                                    fill="#236BFF" />
                                <path
                                    d="M41.3345 7.89399C41.3345 9.15298 40.3378 10.1497 38.3444 10.1497C37.3215 10.1759 36.2986 9.8087 35.5117 9.15298L36.3773 7.52678C36.8494 7.92022 37.4264 8.18251 38.0297 8.28743C38.7903 8.36612 39.1838 8.23497 39.1838 7.97268C39.1838 7.65793 38.8166 7.60547 38.1871 7.50056C36.0363 7.0809 35.8265 6.08419 35.8265 5.34978C35.8265 4.24817 36.7445 3.25146 38.5543 3.25146C39.3411 3.27769 40.128 3.51375 40.81 3.93341L39.9969 5.53339C39.6297 5.24487 39.1838 5.08749 38.7379 5.03503C38.2658 4.98257 38.0035 5.11372 38.0035 5.2711C38.0035 5.42847 38.1346 5.55961 38.6854 5.63829C40.1805 5.90058 41.3345 6.55632 41.3345 7.89399Z"
                                    fill="#236BFF" />
                                <path
                                    d="M44.6692 4.11702C45.1413 3.56621 45.8495 3.25146 46.6101 3.25146C48.4462 3.25146 49.8625 4.79898 49.8625 6.71369C49.8625 8.6284 48.4724 10.1497 46.6101 10.1497C45.8757 10.1759 45.1675 9.83493 44.6692 9.28412V13.4021H42.4922V3.46129H44.643L44.6692 4.11702ZM47.7118 6.71369C47.7118 5.87436 47.0298 5.19241 46.1905 5.21864C45.3512 5.21864 44.6692 5.90059 44.6954 6.73991C44.6954 7.57924 45.3774 8.23497 46.1905 8.23497C47.0298 8.23497 47.7118 7.55302 47.7118 6.71369Z"
                                    fill="#236BFF" />
                                <path
                                    d="M58.0765 6.68781C58.0765 8.60253 56.4766 10.15 54.4045 10.15C52.2275 10.15 50.7324 8.60253 50.7324 6.68781C50.7324 4.7731 52.2012 3.22559 54.4045 3.22559C56.4503 3.25181 58.0765 4.7731 58.0765 6.68781ZM55.9258 6.68781C55.9258 5.84848 55.2438 5.16654 54.4045 5.16654C53.5651 5.16654 52.8832 5.84848 52.8832 6.68781C52.8832 7.52714 53.5651 8.20909 54.4045 8.20909C55.2438 8.20909 55.9258 7.52714 55.9258 6.68781C55.9258 6.71404 55.9258 6.68781 55.9258 6.68781Z"
                                    fill="#236BFF" />
                                <path
                                    d="M59.8 5.40236H58.7246V3.46141H59.8V1.52047L61.9508 0.864746V3.46141H63.6819V5.40236H61.9508V9.93997H59.8V5.40236Z"
                                    fill="#236BFF" />
                                <path
                                    d="M64.1562 8.9701C64.1562 8.31437 64.6808 7.78979 65.3366 7.78979C65.9923 7.78979 66.5169 8.31437 66.5169 8.9701C66.5169 9.62582 65.9923 10.1504 65.3366 10.1504C64.7071 10.1504 64.1825 9.62582 64.1562 8.9701Z"
                                    fill="#236BFF" />
                                <path
                                    d="M72.6565 7.63206L73.7581 9.07466C73.1286 9.75661 72.2631 10.15 71.3188 10.15C69.0631 10.15 67.6992 8.60253 67.6992 6.68781C67.6992 4.7731 69.0631 3.22559 71.3188 3.22559C72.2368 3.22559 73.1286 3.61902 73.7581 4.27474L72.6565 5.71734C72.3417 5.35013 71.8958 5.14031 71.45 5.14031C70.6106 5.11408 69.9024 5.74358 69.8762 6.58291C69.85 7.42223 70.4795 8.13041 71.3188 8.15664C71.3713 8.15664 71.3975 8.15664 71.45 8.15664C71.9221 8.2091 72.368 7.99927 72.6565 7.63206Z"
                                    fill="#236BFF" />
                                <path
                                    d="M81.4473 6.26873V9.94078H79.2703V6.47856C79.2703 5.40317 78.667 5.19333 78.1949 5.19333C77.7228 5.19333 77.1195 5.58678 77.1195 6.71462V9.94078H74.9688V0H77.1195V4.11795C77.513 3.56714 78.1687 3.22617 78.8506 3.2524C80.2146 3.2524 81.4473 4.2491 81.4473 6.26873Z"
                                    fill="#236BFF" />
                            </svg>