<svg width="82" height="13" viewBox="0 0 82 13" fill="none"
                                xmlns="http://www.w3.org/2000/svg">
                                <path
                                    d="M3.47212 11.3117C3.24123 11.3117 3.01551 11.2432 2.82353 11.1149C2.63155 10.9867 2.48191 10.8043 2.39355 10.591C2.30519 10.3777 2.28207 10.1429 2.32712 9.91649C2.37217 9.69003 2.48335 9.48201 2.64662 9.31874C2.80989 9.15547 3.01791 9.04429 3.24437 8.99924C3.47083 8.95419 3.70556 8.97731 3.91888 9.06567C4.1322 9.15403 4.31453 9.30367 4.44281 9.49565C4.57109 9.68763 4.63956 9.91334 4.63956 10.1442C4.63956 10.2976 4.60937 10.4494 4.5507 10.591C4.49203 10.7326 4.40603 10.8613 4.29763 10.9697C4.18922 11.0782 4.06052 11.1641 3.91888 11.2228C3.77724 11.2815 3.62543 11.3117 3.47212 11.3117Z"
                                    fill="#236BFF" />
                                <path
                                    d="M8.38228 11.3276C8.15138 11.3276 7.92567 11.2591 7.73369 11.1308C7.5417 11.0025 7.39207 10.8202 7.30371 10.6069C7.21535 10.3936 7.19223 10.1588 7.23728 9.93236C7.28232 9.7059 7.39351 9.49788 7.55678 9.33461C7.72005 9.17134 7.92806 9.06015 8.15453 9.01511C8.38099 8.97006 8.61572 8.99319 8.82904 9.08155C9.04236 9.16991 9.22469 9.31954 9.35297 9.51152C9.48125 9.70351 9.54972 9.92922 9.54972 10.1601C9.54912 10.4696 9.42593 10.7661 9.20712 10.985C8.98831 11.2038 8.69172 11.327 8.38228 11.3276Z"
                                    fill="#236BFF" />
                                <path
                                    d="M4.25719 8.1675H2.46184C2.34382 8.15801 2.23097 8.115 2.13659 8.04351C2.0422 7.97202 1.97022 7.87504 1.92912 7.764L0.0566882 3.15546C0.0186609 3.06825 -0.000645549 2.97404 1.64665e-05 2.8789C-0.000752226 2.72412 0.0497649 2.57344 0.143681 2.45041C0.237597 2.32738 0.369622 2.23891 0.519128 2.19884V2.17617H0.657407H8.31942C8.49618 2.17617 8.66569 2.24639 8.79068 2.37138C8.91566 2.49636 8.98588 2.66588 8.98588 2.84263C8.98588 3.01939 8.91566 3.1889 8.79068 3.31389C8.66569 3.43887 8.49618 3.50909 8.31942 3.50909H1.6775L2.81093 6.58296C2.83937 6.65542 2.88848 6.7179 2.95217 6.76264C3.01585 6.80739 3.0913 6.8324 3.1691 6.83458H8.45543C8.50673 6.83035 8.5561 6.81315 8.59892 6.7846C8.64175 6.75605 8.67662 6.71709 8.70025 6.67138L11.2255 1.13568C11.2812 1.01082 11.3718 0.904761 11.4865 0.830333C11.6011 0.755906 11.7349 0.716301 11.8716 0.716309H14.0795C14.2337 0.716309 14.3816 0.777571 14.4907 0.886614C14.5997 0.995658 14.661 1.14355 14.661 1.29776C14.661 1.45197 14.5997 1.59987 14.4907 1.70891C14.3816 1.81795 14.2337 1.87921 14.0795 1.87921H12.5585C12.473 1.87834 12.3893 1.90316 12.3182 1.95046C12.247 1.99775 12.1918 2.06533 12.1595 2.14444C12.087 2.29178 10.4865 5.91651 9.89263 7.2789L9.61154 7.85921C9.56666 7.95393 9.49517 8.03352 9.4058 8.08827C9.31643 8.14302 9.21305 8.17055 9.10829 8.1675H4.25719Z"
                                    fill="#236BFF" />
                                <path
                                    d="M23.7604 2.7861C24.2919 2.7773 24.8231 2.81752 25.3472 2.90624C25.7117 2.96017 26.0532 3.11752 26.331 3.35961C26.5914 3.62528 26.7673 3.96208 26.8365 4.32756C26.9462 4.87132 26.9957 5.42552 26.9839 5.98011V10.1081C26.988 10.1368 26.9853 10.1661 26.9762 10.1937C26.9671 10.2212 26.9518 10.2463 26.9313 10.267C26.9109 10.2876 26.886 10.3032 26.8585 10.3126C26.8311 10.322 26.8018 10.325 26.773 10.3212H25.2089C25.0759 10.3212 25.0094 10.2501 25.0094 10.1081V6.49469C25.0147 6.12064 24.9966 5.74663 24.955 5.37486C24.9388 5.16307 24.8694 4.95879 24.7533 4.78094C24.6475 4.64774 24.4936 4.56145 24.3248 4.54065C24.0763 4.5051 23.8255 4.48918 23.5745 4.49305H22.3549V10.1081C22.3549 10.2501 22.2884 10.3212 22.1554 10.3212H20.5686C20.4356 10.3212 20.3691 10.2501 20.3691 10.1081V3.21453C20.3691 3.13519 20.385 3.08532 20.4167 3.06719C20.4649 3.04287 20.5159 3.02459 20.5686 3.01278C20.8097 2.95612 21.0543 2.91598 21.3008 2.89264C21.5668 2.86544 21.8396 2.84352 22.1192 2.8269C22.3987 2.81027 22.6783 2.79894 22.9579 2.7929L23.7604 2.7861Z"
                                    fill="#236BFF" />
                                <path
                                    d="M31.3264 2.78596C31.8697 2.77446 32.4124 2.8285 32.9427 2.94691C33.3273 3.03239 33.6758 3.23516 33.9401 3.52723C34.2059 3.85448 34.3824 4.24496 34.4524 4.66066C34.5613 5.26569 34.6106 5.87992 34.5998 6.49456V6.90713C34.6105 7.00755 34.5821 7.10824 34.5205 7.18823C34.418 7.25507 34.295 7.28319 34.1736 7.26756H29.9981C29.9993 7.51258 30.0282 7.75669 30.0842 7.99523C30.1217 8.15743 30.2051 8.30539 30.3245 8.4214C30.4534 8.53113 30.6104 8.60259 30.7779 8.62768C31.0183 8.66742 31.2618 8.68563 31.5055 8.68209H33.8676C33.8947 8.67833 33.9223 8.68089 33.9482 8.68958C33.9741 8.69828 33.9976 8.71286 34.017 8.73219C34.0363 8.75152 34.0509 8.77508 34.0596 8.801C34.0683 8.82692 34.0708 8.8545 34.0671 8.88158V9.9878C34.0696 10.0141 34.0667 10.0407 34.0586 10.0659C34.0504 10.0911 34.0373 10.1143 34.0199 10.1343C34.0025 10.1542 33.9812 10.1704 33.9574 10.1818C33.9336 10.1933 33.9076 10.1998 33.8812 10.2009C33.4831 10.2776 33.0801 10.3268 32.6752 10.3482C32.2218 10.3754 31.7753 10.389 31.3355 10.389C30.7769 10.4013 30.2188 10.345 29.6739 10.2213C29.2809 10.1328 28.9248 9.92542 28.6538 9.62737C28.3812 9.29058 28.2022 8.88792 28.1347 8.45994C27.9395 7.21624 27.9395 5.9497 28.1347 4.706C28.2032 4.28037 28.3822 3.88017 28.6538 3.54537C28.9242 3.24783 29.2795 3.04051 29.6716 2.95145C30.2144 2.82879 30.7701 2.77322 31.3264 2.78596ZM31.3264 4.49292C31.1152 4.48814 30.9042 4.51023 30.6985 4.55866C30.5427 4.59467 30.3999 4.67313 30.2859 4.78534C30.1726 4.91443 30.0945 5.07059 30.0593 5.23872C30.0055 5.47741 29.9811 5.72178 29.9867 5.96638H32.6276C32.6327 5.72214 32.6107 5.47809 32.5619 5.23872C32.5269 5.07049 32.4488 4.91425 32.3352 4.78534C32.2258 4.67311 32.0866 4.59446 31.934 4.55866C31.7377 4.5088 31.5358 4.48442 31.3332 4.48612L31.3264 4.49292Z"
                                    fill="#236BFF" />
                                <path
                                    d="M37.876 0.786565C37.9032 0.776177 37.9329 0.773862 37.9614 0.779892C37.99 0.785922 38.0162 0.800044 38.0369 0.82057C38.0755 0.867679 38.0949 0.927558 38.0913 0.988319V2.89929H39.2474C39.3985 2.89929 39.4741 2.96578 39.4741 3.09877V4.16647C39.4741 4.29946 39.3985 4.36595 39.2474 4.36595H38.0913V8.00654C38.0913 8.29066 38.1487 8.47503 38.2636 8.55966C38.4514 8.66149 38.6651 8.70565 38.8779 8.6866H39.4242C39.5754 8.6866 39.6509 8.7531 39.6509 8.88609V10.0195C39.6547 10.0504 39.6521 10.0817 39.6432 10.1115C39.6344 10.1413 39.6195 10.169 39.5995 10.1928C39.5796 10.2166 39.5549 10.236 39.5271 10.2499C39.4993 10.2638 39.4689 10.2718 39.4378 10.2734C39.2066 10.3172 38.9981 10.3482 38.8122 10.3664C38.6263 10.3845 38.457 10.3936 38.3044 10.3936C38.0203 10.3936 37.7445 10.3822 37.477 10.3596C37.2319 10.3439 36.9931 10.2758 36.7765 10.1601C36.5684 10.0406 36.4009 9.86132 36.296 9.64549C36.1614 9.33968 36.1001 9.00668 36.1169 8.673V4.36595H35.3303C35.1882 4.36595 35.1172 4.29946 35.1172 4.16647V3.09877C35.1172 2.96578 35.1882 2.89929 35.3303 2.89929H36.1169V1.41902C36.1143 1.36637 36.1323 1.31478 36.1669 1.27505C36.2016 1.23533 36.2502 1.21056 36.3028 1.20594L37.876 0.786565Z"
                                    fill="#236BFF" />
                                <path
                                    d="M42.8291 0.786565C42.8564 0.776177 42.886 0.773862 42.9146 0.779892C42.9431 0.785922 42.9693 0.800044 42.99 0.82057C43.0286 0.867679 43.048 0.927558 43.0444 0.988319V2.89929H44.2708C44.422 2.89929 44.4975 2.96578 44.4975 3.09877V4.16647C44.4975 4.29946 44.422 4.36595 44.2708 4.36595H43.0444V8.00654C43.0444 8.29066 43.1019 8.47503 43.2167 8.55966C43.4046 8.66149 43.6183 8.70565 43.8311 8.6866H44.3774C44.5285 8.6866 44.604 8.7531 44.604 8.88609V10.0195C44.6078 10.0504 44.6052 10.0817 44.5964 10.1115C44.5875 10.1413 44.5727 10.169 44.5527 10.1928C44.5327 10.2166 44.508 10.236 44.4802 10.2499C44.4524 10.2638 44.422 10.2718 44.391 10.2734C44.1597 10.3172 43.9512 10.3482 43.7653 10.3664C43.5794 10.3845 43.4102 10.3936 43.2575 10.3936C42.9734 10.3936 42.6976 10.3822 42.4301 10.3596C42.1851 10.3439 41.9462 10.2758 41.7297 10.1601C41.5215 10.0406 41.3541 9.86132 41.2491 9.64549C41.1145 9.33968 41.0532 9.00668 41.07 8.673V4.36595H40.2834C40.1413 4.36595 40.0703 4.29946 40.0703 4.16647V3.09877C40.0703 2.96578 40.1413 2.89929 40.2834 2.89929H41.07V1.41902C41.0675 1.36637 41.0854 1.31478 41.12 1.27505C41.1547 1.23533 41.2034 1.21056 41.2559 1.20594L42.8291 0.786565Z"
                                    fill="#236BFF" />
                                <path
                                    d="M48.6926 2.78585C49.264 2.77348 49.8348 2.8298 50.3927 2.9536C50.7919 3.04125 51.1548 3.24842 51.4332 3.54752C51.7084 3.88011 51.8879 4.28133 51.9523 4.70816C52.1394 5.95248 52.1394 7.21777 51.9523 8.46209C51.8889 8.89127 51.7094 9.29496 51.4332 9.62953C51.1549 9.92874 50.7919 10.1359 50.3927 10.2234C49.2702 10.4456 48.115 10.4456 46.9924 10.2234C46.5932 10.1361 46.2302 9.92886 45.9519 9.62953C45.6758 9.2949 45.4964 8.89124 45.4328 8.46209C45.2453 7.21944 45.2437 5.95579 45.4283 4.71269C45.4929 4.2859 45.6723 3.8847 45.9474 3.55205C46.2258 3.25295 46.5888 3.04578 46.9879 2.95813C47.5472 2.83245 48.1195 2.77461 48.6926 2.78585ZM48.6926 4.4928C48.4437 4.48546 48.1951 4.51681 47.9559 4.58574C47.7788 4.64021 47.6269 4.75593 47.5274 4.91217C47.4154 5.10846 47.3466 5.32641 47.3257 5.55143C47.2542 6.23871 47.2542 6.93154 47.3257 7.61882C47.3466 7.84384 47.4154 8.06179 47.5274 8.25807C47.6268 8.41445 47.7787 8.53021 47.9559 8.5845C48.1951 8.65357 48.4437 8.68493 48.6926 8.67744C48.946 8.68546 49.1991 8.65411 49.4429 8.5845C49.6201 8.53021 49.772 8.41445 49.8714 8.25807C49.9834 8.06179 50.0522 7.84384 50.0731 7.61882C50.1445 6.93154 50.1445 6.23871 50.0731 5.55143C50.0522 5.32641 49.9834 5.10846 49.8714 4.91217C49.7719 4.75593 49.62 4.64021 49.4429 4.58574C49.1973 4.51328 48.9418 4.47963 48.6858 4.486L48.6926 4.4928Z"
                                    fill="#236BFF" />
                                <path
                                    d="M56.1277 2.78589C56.4118 2.78589 56.736 2.79722 57.1002 2.81989C57.4804 2.84425 57.8589 2.89119 58.2336 2.96044C58.3757 2.99671 58.4467 3.06774 58.4467 3.17352V4.18681C58.4467 4.32887 58.3711 4.3999 58.22 4.3999H55.8217C55.2973 4.3999 55.035 4.56009 55.035 4.88047V5.01422C55.0353 5.0763 55.0478 5.13772 55.0719 5.19492C55.0961 5.25212 55.1313 5.30396 55.1756 5.34745C55.3208 5.47221 55.4908 5.56491 55.6743 5.61947L57.3813 6.22019C57.6318 6.30065 57.8682 6.41998 58.0817 6.57382C58.251 6.69681 58.3956 6.85062 58.5079 7.0272C58.6099 7.19565 58.682 7.38048 58.721 7.57351C58.7629 7.78398 58.7834 7.99817 58.7822 8.21277V8.42586C58.7941 8.7562 58.7232 9.08428 58.5759 9.38021C58.4414 9.63004 58.2406 9.83791 57.9956 9.98093C57.7192 10.1369 57.4164 10.2406 57.1024 10.287C56.7186 10.3473 56.3304 10.3761 55.9418 10.3731C55.3554 10.3731 54.8265 10.3595 54.355 10.3323C53.8835 10.3051 53.4898 10.2741 53.174 10.2394C53.0221 10.2394 52.9473 10.1736 52.9473 10.0399V8.97444C52.9473 8.84069 53.0221 8.77496 53.174 8.77496H55.9078C56.1541 8.79155 56.4012 8.75998 56.6355 8.68202C56.7003 8.64851 56.7534 8.59611 56.7878 8.53175C56.8222 8.46739 56.8363 8.39411 56.8281 8.32158V8.20144C56.828 8.13873 56.8148 8.07673 56.7894 8.01937C56.7641 7.96201 56.7271 7.91054 56.6808 7.86821C56.5076 7.73091 56.3076 7.6313 56.0937 7.57578L54.4615 6.9796C54.2222 6.90547 53.9986 6.7879 53.8019 6.63276C53.636 6.49926 53.4962 6.33635 53.3893 6.15219C53.2843 5.97399 53.2078 5.78048 53.1626 5.57867C53.1181 5.37235 53.0961 5.16181 53.0969 4.95075V4.71273C53.0969 4.00093 53.3613 3.50298 53.8903 3.21886C54.4192 2.93475 55.165 2.79042 56.1277 2.78589Z"
                                    fill="#236BFF" />
                                <path
                                    d="M61.5224 0C61.6562 0 61.7219 0.07027 61.7219 0.213083V2.85399C61.9713 2.82678 62.2229 2.80865 62.4768 2.79958C62.7307 2.79051 62.9513 2.78598 63.1387 2.78598C63.6702 2.77698 64.2014 2.8172 64.7255 2.90612C65.09 2.96043 65.4313 3.11772 65.7094 3.3595C65.9709 3.62463 66.1476 3.96157 66.2171 4.32745C66.3272 4.87116 66.3766 5.4254 66.3645 5.98V10.108C66.3645 10.25 66.298 10.321 66.165 10.321H64.5782C64.4535 10.321 64.3923 10.2508 64.3923 10.108V6.49457C64.3976 6.12053 64.3794 5.74652 64.3379 5.37475C64.322 5.16185 64.25 4.95694 64.1293 4.78082C64.0198 4.64866 63.8643 4.56283 63.6941 4.54053C63.4456 4.50501 63.1947 4.4891 62.9438 4.49293H61.7378V10.108C61.7378 10.25 61.6713 10.321 61.5383 10.321H59.9515C59.8276 10.321 59.7656 10.25 59.7656 10.108V0.213083C59.7656 0.0710256 59.8321 0 59.9651 0H61.5224Z"
                                    fill="#236BFF" />
                                <path
                                    d="M70.7864 2.78585C71.3577 2.77348 71.9285 2.8298 72.4865 2.9536C72.8856 3.04125 73.2486 3.24842 73.527 3.54752C73.8022 3.88011 73.9816 4.28133 74.0461 4.70816C74.2332 5.95248 74.2332 7.21777 74.0461 8.46209C73.9827 8.89127 73.8032 9.29496 73.527 9.62953C73.2487 9.92874 72.8857 10.1359 72.4865 10.2234C71.364 10.4456 70.2087 10.4456 69.0862 10.2234C68.687 10.1361 68.3239 9.92886 68.0457 9.62953C67.7696 9.2949 67.5901 8.89124 67.5266 8.46209C67.3401 7.21773 67.3401 5.95252 67.5266 4.70816C67.5911 4.28133 67.7705 3.88011 68.0457 3.54752C68.324 3.2483 68.687 3.04111 69.0862 2.9536C69.6442 2.82983 70.215 2.77351 70.7864 2.78585ZM70.7864 4.4928C70.5374 4.48549 70.2889 4.51685 70.0496 4.58574C69.8726 4.64021 69.7207 4.75593 69.6212 4.91217C69.5092 5.10846 69.4404 5.32641 69.4194 5.55143C69.348 6.23871 69.348 6.93154 69.4194 7.61882C69.4404 7.84384 69.5092 8.06179 69.6212 8.25807C69.7207 8.41432 69.8726 8.53003 70.0496 8.5845C70.2889 8.65354 70.5374 8.6849 70.7864 8.67744C71.0398 8.68543 71.2929 8.65407 71.5367 8.5845C71.7137 8.53003 71.8656 8.41432 71.9651 8.25807C72.0771 8.06179 72.1459 7.84384 72.1669 7.61882C72.2383 6.93154 72.2383 6.23871 72.1669 5.55143C72.1459 5.32641 72.0771 5.10846 71.9651 4.91217C71.8656 4.75593 71.7137 4.64021 71.5367 4.58574C71.291 4.51332 71.0356 4.47966 70.7796 4.486L70.7864 4.4928Z"
                                    fill="#236BFF" />
                                <path
                                    d="M78.47 2.78604C79.0507 2.77277 79.6308 2.83063 80.1974 2.95832C80.603 3.04931 80.9738 3.25555 81.2651 3.55224C81.5468 3.87254 81.7336 4.26505 81.8046 4.68567C81.9126 5.27706 81.962 5.87767 81.9519 6.47877C81.9618 7.1149 81.9147 7.75064 81.8114 8.3784C81.7467 8.81122 81.5796 9.22233 81.324 9.57757C81.0836 9.88302 80.7514 10.1031 80.3764 10.2055C79.8851 10.3367 79.3774 10.397 78.869 10.3846C78.5849 10.3846 78.3113 10.38 78.0484 10.371C77.7854 10.3619 77.5119 10.34 77.2278 10.3052V12.7988C77.2315 12.8259 77.229 12.8535 77.2203 12.8794C77.2116 12.9053 77.197 12.9288 77.1777 12.9482C77.1583 12.9675 77.1348 12.9821 77.1089 12.9908C77.0829 12.9995 77.0554 13.002 77.0283 12.9983H75.4551C75.428 13.002 75.4004 12.9995 75.3745 12.9908C75.3486 12.9821 75.325 12.9675 75.3057 12.9482C75.2864 12.9288 75.2718 12.9053 75.2631 12.8794C75.2544 12.8535 75.2518 12.8259 75.2556 12.7988V3.36862C75.2515 3.28816 75.278 3.20913 75.3297 3.14735C75.3814 3.08556 75.4545 3.04557 75.5344 3.03539C76.086 2.94623 76.5976 2.882 77.0691 2.84271C77.5406 2.80341 78.0076 2.78452 78.47 2.78604ZM77.23 4.48619V8.59375C77.425 8.62095 77.6313 8.64136 77.8444 8.65269C78.0574 8.66403 78.2524 8.67309 78.4315 8.67309C78.705 8.68022 78.9783 8.65357 79.2453 8.59375C79.4348 8.55058 79.6013 8.43821 79.7123 8.27866C79.8319 8.08415 79.9048 7.86456 79.9253 7.63713C79.9645 7.28871 79.982 6.93817 79.9775 6.58757C79.9775 6.19465 79.9639 5.86444 79.9367 5.59695C79.9221 5.37084 79.8612 5.15015 79.7576 4.94863C79.6648 4.78425 79.5159 4.65873 79.3382 4.595C79.0888 4.51443 78.8271 4.47837 78.5652 4.48846L77.23 4.48619Z"
                                    fill="#236BFF" />
                            </svg>