<svg width="16" height="16" viewBox="0 0 16 16" fill="none" xmlns="http://www.w3.org/2000/svg">
<path d="M8.00065 14.6666C11.6825 14.6666 14.6673 11.6818 14.6673 7.99992C14.6673 4.31802 11.6825 1.33325 8.00065 1.33325C4.31875 1.33325 1.33398 4.31802 1.33398 7.99992C1.33398 11.6818 4.31875 14.6666 8.00065 14.6666Z" stroke="#1D3042" stroke-linecap="round" stroke-linejoin="round"/>
<path d="M5.33984 9.67322C5.45984 9.87322 5.60651 10.0599 5.77317 10.2266C6.99984 11.4532 8.99317 11.4532 10.2265 10.2266C10.7265 9.72656 11.0132 9.0932 11.1065 8.44653" stroke="#1D3042" stroke-linecap="round" stroke-linejoin="round"/>
<path d="M4.89258 7.5533C4.98591 6.89997 5.27258 6.27327 5.77258 5.77327C6.99925 4.5466 8.99258 4.5466 10.2259 5.77327C10.3992 5.9466 10.5392 6.13328 10.6592 6.32662" stroke="#1D3042" stroke-linecap="round" stroke-linejoin="round"/>
<path d="M5.21289 11.4533V9.67334H6.99288" stroke="#1D3042" stroke-linecap="round" stroke-linejoin="round"/>
<path d="M10.7858 4.54663V6.32662H9.00586" stroke="#1D3042" stroke-linecap="round" stroke-linejoin="round"/>
</svg>
