<svg width="75" height="14" viewBox="0 0 75 14" fill="none"
                                xmlns="http://www.w3.org/2000/svg">
                                <path
                                    d="M36.011 1.00659L33.7852 13.5989L36.5697 13.5994L37.7621 3.86157H37.8879L39.0293 13.5985L41.8034 13.5989L39.5775 1.00809L36.011 1.00659Z"
                                    fill="#236BFF" />
                                <path
                                    d="M61.2584 7.1907V7.38393L62.7727 13.5867H65.5274L63.9081 8.11939V8.08344L63.9696 8.03401C64.7125 7.42287 65.1364 6.29646 65.1364 4.91091V4.69521C65.1364 3.55382 64.7814 2.59966 64.1104 1.93759C63.4857 1.32346 62.6574 1.00141 61.6613 1.00591H58.2012V13.5867H60.5169L60.8569 13.578V3.08498L60.8584 3.06101H61.2808C62.2739 3.06101 62.4732 4.08857 62.4926 4.81205C62.4926 4.82403 62.4941 4.91989 62.4941 5.01276C62.4941 5.08916 62.4956 5.19551 62.4956 5.19551C62.4956 5.26291 62.4941 5.36626 62.4896 5.42918C62.4402 6.64097 61.91 7.06787 61.4995 7.14726C61.498 7.14726 61.4875 7.15026 61.486 7.15026L61.2584 7.1907Z"
                                    fill="#236BFF" />
                                <path
                                    d="M26.1209 4.12769V4.29545C26.1209 6.26218 27.3192 7.25379 28.4172 8.14204L28.7063 8.37571C29.6694 9.16809 30.2311 9.96197 30.2311 10.5965V10.6434C30.2311 11.5466 29.8507 11.7479 29.4567 11.7479C29.0853 11.7479 28.6554 11.3628 28.6554 10.5815C28.6554 10.5815 28.6554 9.64951 28.6554 9.63813C28.6419 9.63813 26.0311 9.63813 26.0176 9.63813C26.0176 9.64951 26.0176 10.4654 26.0176 10.4654C26.0176 12.4825 27.4001 13.8372 29.4567 13.8372C31.6586 13.8372 32.9663 12.6098 32.9663 10.5396V10.4283C32.9663 8.42514 32.0915 7.64923 30.7075 6.45691L30.4888 6.26967C30.4873 6.26818 30.0903 5.93415 30.0903 5.93415C29.3998 5.35746 28.8591 4.82721 28.8591 4.13368V4.06478C28.8591 3.68431 28.9834 3.00427 29.6395 3.00427C30.2461 3.00427 30.3854 3.79067 30.3854 4.1951C30.3854 4.1951 30.3854 5.03092 30.3854 5.0414C30.3974 5.0414 32.9378 5.0414 32.9483 5.0414C32.9483 5.03092 32.9483 4.17862 32.9483 4.17862C32.9483 2.10404 31.6496 0.763428 29.6395 0.763428C27.9439 0.763428 26.1209 1.81644 26.1209 4.12769Z"
                                    fill="#236BFF" />
                                <path
                                    d="M41.4746 1.00659V3.18602C41.4746 3.18602 43.1298 3.18602 43.4728 3.18602C43.4728 3.60993 43.4728 13.5874 43.4728 13.5874H46.1705V3.18602H47.8841V1.00659H41.4746Z"
                                    fill="#236BFF" />
                                <path
                                    d="M53.5935 1.00659V10.5467C53.5935 11.5034 53.0857 11.6316 52.819 11.6316C52.3577 11.6316 52.0461 11.2513 52.0461 10.5467V1.00659H49.3574V10.8513C49.3574 12.6587 50.716 13.8251 52.819 13.8251C54.9221 13.8251 56.2822 12.6587 56.2822 10.8513V1.00659H53.5935Z"
                                    fill="#236BFF" />
                                <path
                                    d="M72.3856 1.00659L72.5264 10.0158H72.459L70.4129 1.00659H66.8809V13.5989H69.5651L69.3494 4.5551H69.4168L71.4989 13.5979L74.9964 13.5989V1.00659H72.3856Z"
                                    fill="#236BFF" />
                                <path
                                    d="M18.9142 6.30816C18.9157 6.32314 18.9367 6.55082 18.9441 6.71259C18.9501 6.82493 18.9441 7.00019 18.9441 7.01067C18.9471 7.01067 18.9726 7.03314 18.9741 7.03464C20.3926 8.197 21.898 9.78342 22.1571 10.9485C22.229 11.2711 22.2125 11.5623 22.0852 11.8113C21.9339 12.1026 21.6493 12.3113 21.2569 12.4453C19.2243 13.1397 14.3771 11.8075 10.4211 9.85307C7.59463 8.45614 5.11412 6.79198 3.43559 5.16527C1.87553 3.6524 1.45313 2.47207 1.85606 1.76057C2.00929 1.49095 2.27322 1.29172 2.62657 1.15542C3.91686 0.652125 6.39003 1.00413 8.8244 1.73061C7.67252 2.59039 6.86965 3.75126 6.49802 4.91213C6.49802 4.91363 6.49668 4.91812 6.49668 4.91812C6.49668 4.91962 6.49578 4.92411 6.49578 4.92411C6.38179 5.98761 7.92117 7.37765 9.47598 8.15356C9.47448 8.14757 9.55986 8.18502 9.55986 8.17903C9.55836 8.17304 9.54488 8.07118 9.54338 8.06669C9.1794 5.42441 11.1806 1.46997 13.2836 0.602695C13.4184 0.547273 13.5353 0.514321 13.5517 0.50833C13.5383 0.506832 13.2941 0.482863 13.2806 0.481365C13.2072 0.475374 13.1338 0.469382 13.0544 0.466387C12.9691 0.461892 12.8792 0.458899 12.7833 0.457401C11.4891 0.439426 10.3522 0.783939 9.40558 1.34265C5.3427 -0.0518835 2.36744 -0.215152 1.12404 0.199764C0.630036 0.366029 0.295707 0.616178 0.130789 0.947211C-0.0425172 1.29472 -0.0437149 1.7321 0.127943 2.24438C0.693995 3.937 3.16656 6.24975 6.29865 8.30335C6.75281 10.6943 8.8963 13.1468 11.964 13.473C11.97 13.4735 12.0973 13.4871 12.1048 13.4877C12.1018 13.4853 12.1572 13.4889 12.1542 13.4871C12.1452 13.479 11.9924 13.3635 11.9834 13.3568C11.0338 12.626 10.1815 11.4211 9.8894 10.3757C9.95081 10.407 10.0122 10.4374 10.0736 10.4687C10.1216 10.4928 10.168 10.516 10.2159 10.5393C15.168 12.9871 20.3641 14.235 22.6634 13.4657C23.1787 13.2936 23.5577 13.0508 23.7314 12.7028C23.8977 12.37 23.8692 11.9291 23.7029 11.4336C23.2701 10.1417 21.4142 8.17154 19.058 6.41451C19.0505 6.40852 18.9232 6.31265 18.9142 6.30816Z"
                                    fill="#236BFF" />
                            </svg>