<svg width="19" height="19" viewBox="0 0 19 19" fill="none" xmlns="http://www.w3.org/2000/svg">
<path d="M16.8236 7.24366C14.9948 4.36991 12.319 2.71533 9.50065 2.71533C8.09148 2.71533 6.7219 3.127 5.47107 3.89492C4.22023 4.67075 3.09607 5.80283 2.17773 7.24366C1.38607 8.48658 1.38607 10.5053 2.17773 11.7482C4.00648 14.6299 6.68232 16.2766 9.50065 16.2766C10.9098 16.2766 12.2794 15.8649 13.5302 15.097C14.7811 14.3212 15.9052 13.1891 16.8236 11.7482C17.6152 10.5132 17.6152 8.48658 16.8236 7.24366ZM9.50065 12.6982C7.72732 12.6982 6.30232 11.2653 6.30232 9.49992C6.30232 7.7345 7.72732 6.30158 9.50065 6.30158C11.274 6.30158 12.699 7.7345 12.699 9.49992C12.699 11.2653 11.274 12.6982 9.50065 12.6982Z" fill="#1D3042"/>
<path d="M9.50039 7.23584C8.25747 7.23584 7.24414 8.24917 7.24414 9.50001C7.24414 10.7429 8.25747 11.7563 9.50039 11.7563C10.7433 11.7563 11.7646 10.7429 11.7646 9.50001C11.7646 8.25709 10.7433 7.23584 9.50039 7.23584Z" fill="#1D3042"/>
</svg>
