<svg width="75" height="11" viewBox="0 0 75 11" fill="none" xmlns="http://www.w3.org/2000/svg">
<path fill-rule="evenodd" clip-rule="evenodd" d="M64.718 3.96571L64.7402 3.82575C64.7511 3.7696 64.7352 3.71094 64.6992 3.66652C64.6619 3.62294 64.6079 3.59696 64.5509 3.59696H63.5454C63.4524 3.5957 63.3712 3.66149 63.3536 3.75368L63.3255 3.90579L62.2513 9.77769C62.2417 9.83426 62.2589 9.89334 62.2966 9.93734C62.3347 9.98092 62.3925 10.0069 62.4503 10.0056L62.9463 9.9981H63.4126C63.5056 9.9981 63.5831 9.93315 63.6016 9.8439L64.3385 6.19957C64.5819 5.27602 65.1935 5.00114 65.7348 4.9211C65.7637 4.91733 65.8731 4.91901 65.8961 4.90392C65.5253 7.11348 65.0863 9.7295 65.0788 9.77308C65.0691 9.82839 65.0855 9.8858 65.1219 9.9298C65.1583 9.97296 65.2132 9.9981 65.2685 9.9981H66.3515C66.4357 9.9981 66.5111 9.94405 66.5354 9.86233C66.5702 9.7559 66.8291 8.25451 66.9845 7.35275C67.3854 7.96076 68.6657 9.90927 68.6657 9.90927C68.7017 9.96374 68.7625 9.99601 68.8274 9.99601L70.1215 9.9981C70.145 9.9981 70.1664 9.99265 70.1881 9.98553C70.2158 9.9981 70.2464 10.0065 70.2765 10.0056L71.3691 9.9981C71.4634 9.99768 71.5426 9.9298 71.5581 9.83887C71.5581 9.83887 72.3495 5.26722 72.4014 4.9672C72.6557 4.96678 73.6557 4.96552 73.6557 4.96552C73.7495 4.96552 73.83 4.89764 73.8463 4.80503L74.0152 3.82198C74.0173 3.81108 74.0185 3.80103 74.0185 3.78929C74.0185 3.74488 74.0022 3.70046 73.9737 3.66568C73.9368 3.6221 73.8828 3.59696 73.8245 3.59696H72.5891C72.6494 3.24958 72.8694 1.96776 72.8694 1.96776C72.8706 1.95645 72.8719 1.94555 72.8719 1.93508C72.8719 1.88856 72.8564 1.84456 72.8266 1.8102C72.7906 1.76579 72.7353 1.74148 72.6792 1.74148H71.5933C71.4994 1.74148 71.419 1.80937 71.4026 1.90155C71.4026 1.90155 71.1609 3.33423 71.1161 3.59696C71.0181 3.59989 70.9167 3.60199 70.9167 3.60199L70.7474 3.60324L70.5677 3.59989C70.4986 3.59822 70.437 3.63383 70.401 3.68957C70.3662 3.63635 70.3075 3.60199 70.2418 3.60199L69.2476 3.59989H68.9565C68.9024 3.59989 68.8517 3.62294 68.814 3.66191C68.814 3.66191 67.814 4.80838 67.2828 5.38371C67.4382 4.47232 67.8668 1.97027 67.8668 1.97027C67.8681 1.95854 67.8693 1.94849 67.8693 1.93675C67.8693 1.89192 67.853 1.8475 67.8232 1.81314C67.7868 1.76872 67.7327 1.744 67.6758 1.744L66.5941 1.74148C66.499 1.74106 66.4177 1.80853 66.4022 1.90113C66.377 2.05031 66.2648 2.71615 66.1144 3.60324C66.1127 3.60031 66.1114 3.59822 66.1093 3.5957C66.0712 3.55087 66.0159 3.5274 65.9573 3.5295C65.4964 3.5429 65.0804 3.73189 64.718 3.96571ZM70.1366 9.463C69.6913 8.74729 68.3901 6.65799 68.2757 6.47362C68.4261 6.29595 70.0101 4.36546 70.3318 3.9875L70.1894 4.73589C70.1785 4.79288 70.1944 4.85154 70.2313 4.89512C70.2682 4.93912 70.3222 4.96552 70.3804 4.96552H70.874C70.8178 5.30661 70.3017 8.45229 70.1366 9.463ZM32.9946 6.96389C32.7688 7.7525 32.0223 8.50299 31.2937 8.67982C30.7366 8.75357 30.3277 8.70119 30.0428 8.51682C29.7428 8.31066 29.5924 7.9528 29.476 7.62973C29.4559 7.51408 29.4454 7.39758 29.4454 7.28403C29.4454 6.5658 29.8295 5.87356 30.5363 5.34349C30.9427 5.05896 31.4944 4.95169 31.9787 5.06273C32.2519 5.12559 32.6256 5.28817 32.8589 5.71056C32.9896 5.93977 33.0592 6.23016 33.0592 6.51343C33.0592 6.67014 33.0374 6.82393 32.9946 6.96389ZM27.4868 1.89527L27.2531 3.16494C27.2422 3.22151 27.2577 3.28059 27.2945 3.32626C27.3314 3.36984 27.3859 3.39582 27.4449 3.39582H28.5748C28.6678 3.39582 28.7487 3.32962 28.7654 3.23659L28.9778 1.97824C28.9871 1.92209 28.972 1.863 28.9359 1.819C28.8991 1.77501 28.8446 1.74903 28.7885 1.74861L27.6779 1.73939C27.5849 1.73855 27.5048 1.80476 27.4868 1.89527ZM25.0461 6.96389C25.0884 6.82393 25.1089 6.67014 25.1089 6.51343C25.1089 6.23016 25.0402 5.93977 24.9099 5.71056C24.6753 5.28817 24.3021 5.12559 24.0285 5.06273C23.5454 4.95169 22.9924 5.05896 22.5861 5.34349C21.8806 5.87356 21.4952 6.5658 21.4952 7.28403C21.4952 7.39758 21.506 7.51408 21.5262 7.62973C21.6426 7.9528 21.793 8.31066 22.0934 8.51682C22.3783 8.70119 22.7876 8.75357 23.3439 8.67982C24.0729 8.50299 24.8186 7.7525 25.0461 6.96389ZM15.7775 6.05794C16.24 6.05375 18.4549 6.03279 18.7737 6.02986C18.7507 5.81532 18.6376 5.61418 18.4009 5.37701C18.1394 5.15325 17.7812 5.04807 17.2727 5.04514C16.7217 5.12224 16.0783 5.4847 15.7775 6.05794ZM61.1851 6.96389C60.9597 7.7525 60.2136 8.50299 59.4842 8.67982C58.9266 8.75357 58.5177 8.70119 58.2345 8.51682C57.9337 8.31066 57.7829 7.9528 57.6664 7.62973C57.6472 7.51408 57.6354 7.39758 57.6354 7.28403C57.6354 6.5658 58.02 5.87356 58.7276 5.34349C59.1327 5.05896 59.6857 4.95169 60.1696 5.06273C60.4423 5.12559 60.8169 5.28817 61.0498 5.71056C61.1793 5.93977 61.2492 6.23016 61.2492 6.51343C61.2492 6.67014 61.2279 6.82393 61.1851 6.96389ZM0.390625 9.89879V9.77853C0.39649 9.76596 0.404031 9.7538 0.413667 9.74333L8.46444 0.462596C8.49251 0.431587 8.53189 0.41315 8.57462 0.41315H9.87459C9.91732 0.41315 9.95838 0.432844 9.98645 0.466367C10.0074 0.492347 10.0195 0.526288 10.0195 0.557716C10.0195 0.566935 10.0175 0.577829 10.0158 0.587467C10.0158 0.587467 9.00739 5.56851 8.82012 6.46943C9.45481 5.75204 14.1411 0.462596 14.1411 0.462596C14.1679 0.43033 14.2081 0.41315 14.2487 0.41315H15.4721C15.5169 0.41315 15.5592 0.433263 15.5868 0.468462C15.6141 0.503661 15.6241 0.550173 15.6128 0.592915L14.3288 5.80736C14.3392 5.78808 14.3485 5.76922 14.3581 5.75079C14.9693 4.56199 16.1306 3.72644 17.3874 3.57266C17.3912 3.57182 17.3962 3.57182 17.4013 3.57182C18.5379 3.51399 19.4151 3.94434 19.9413 4.81341C19.9442 4.81802 19.9463 4.82221 19.9497 4.82724C20.1386 5.20688 20.2794 5.71684 20.3045 6.24189C20.519 5.61586 20.9003 5.03676 21.4302 4.54816C22.3284 3.71261 23.4235 3.38367 24.5153 3.62336C24.5266 3.62587 24.54 3.63048 24.5513 3.63509L24.6527 3.67867C24.8949 3.78301 25.1584 3.89866 25.3812 4.09854C25.4994 3.5429 25.8454 1.89527 25.8454 1.89527C25.8647 1.80601 25.9439 1.74148 26.0356 1.74148H27.0394C27.0976 1.74148 27.1521 1.76746 27.189 1.81062C27.2258 1.85504 27.2413 1.91371 27.2313 1.97027L25.7671 9.86694C25.7495 9.95913 25.6695 10.0253 25.5756 10.0253L24.5798 10.0224C24.5216 10.0224 24.4663 9.9981 24.4294 9.9541C24.4001 9.9189 24.3846 9.8749 24.3846 9.83007C24.3846 9.81792 24.3858 9.80576 24.3884 9.79445C24.3884 9.79445 24.4135 9.66204 24.4294 9.57446C23.6175 10.0756 22.7955 10.2709 22.0255 10.1314C21.1449 9.9562 20.3251 9.09509 20.16 8.17238C20.1147 7.92515 20.0946 7.6775 20.0971 7.43362C20.0624 7.46505 20.0163 7.4839 19.9669 7.4839C19.9669 7.4839 15.5621 7.48558 15.343 7.486C15.338 7.50486 15.3351 7.52204 15.3351 7.54215C15.3351 7.61297 15.3594 7.70473 15.3912 7.80949C15.3912 7.80949 15.4046 7.85726 15.4109 7.8778C15.6304 8.41709 16.157 8.75525 16.7544 8.741C17.3485 8.72759 17.899 8.44307 18.3879 7.89623C18.4239 7.85475 18.4771 7.83128 18.5316 7.83128H19.5626C19.6292 7.83128 19.6916 7.86564 19.7264 7.92221C19.7624 7.97836 19.767 8.04918 19.739 8.1091C19.1537 9.3398 17.8412 10.1666 16.4637 10.1666C15.5056 10.1293 14.7012 9.66287 14.2534 8.88305C14.0305 8.46737 13.9249 7.95155 13.9312 7.42356L13.3262 9.88035C13.3099 9.94656 13.2508 9.99182 13.1842 9.99182H11.8801C11.8361 9.99182 11.7938 9.97128 11.7669 9.93608C11.7456 9.90969 11.7347 9.87784 11.7347 9.84641C11.7347 9.83426 11.7364 9.82378 11.7385 9.81247C12.2479 7.69133 12.9622 4.67639 13.2215 3.4834C12.5977 4.21377 7.70951 9.93189 7.70951 9.93189C7.6827 9.96416 7.6429 9.98218 7.60058 9.98218L6.49877 9.99182C6.45436 9.99182 6.41331 9.97254 6.38524 9.93734C6.36429 9.91178 6.35256 9.87951 6.35256 9.84641C6.35256 9.83635 6.35298 9.82588 6.35549 9.81582C6.82177 7.66954 7.47406 4.61311 7.70364 3.42432C7.10247 4.14254 2.25449 9.94027 2.25449 9.94027C2.22642 9.97338 2.18327 9.99265 2.13844 9.99182C1.76224 9.97883 1.47861 9.9805 1.14933 9.98218H0.521753C0.465615 9.98343 0.414086 9.95033 0.390625 9.89879ZM62.9773 3.66652C62.9413 3.62294 62.8869 3.59696 62.829 3.59696H61.8244C61.7331 3.59696 61.6531 3.66107 61.6346 3.75074L61.5571 4.13081C61.3338 3.93093 61.1114 3.8027 60.7926 3.67867L60.6924 3.63509C60.6803 3.63048 60.6682 3.62587 60.6556 3.62336C59.5647 3.38367 58.4687 3.71261 57.5709 4.54816C57.1231 4.96049 56.7833 5.43861 56.5579 5.9536L57.878 0.592915C57.8889 0.550173 57.8793 0.503661 57.8516 0.468462C57.8244 0.433263 57.7825 0.41315 57.7377 0.41315H56.5148C56.472 0.41315 56.4335 0.43033 56.4059 0.462596C56.4059 0.462596 51.72 5.75204 51.0853 6.46943C51.2722 5.56851 52.3174 0.587467 52.3174 0.587467C52.3174 0.577829 52.3199 0.566935 52.3199 0.557716C52.3199 0.52545 52.3099 0.492347 52.2877 0.466367C52.26 0.432844 52.2185 0.41315 52.1754 0.41315H50.8243C50.7816 0.41315 50.7418 0.431587 50.7146 0.462596L43.9663 8.25702C43.8531 7.12228 43.3131 5.88655 43.3131 5.88655C42.4086 4.03317 40.3965 3.4327 39.2553 4.49578L39.2473 4.49746L39.0684 4.62736C39.8963 3.30615 41.9964 3.36481 43.3487 4.92068C43.3487 4.92068 43.9495 5.6431 44.376 6.71791C44.4895 6.33827 44.5591 5.94522 44.58 5.54337C43.8762 4.59049 43.0827 4.03108 43.0827 4.03108C41.3747 2.87874 39.3299 3.36565 38.8728 4.85657L38.8669 4.86286L38.7785 5.06441C38.8342 3.50519 40.6818 2.50664 42.6298 3.17751C42.6298 3.17751 43.5469 3.51399 44.4728 4.26029C44.4602 4.20078 44.4476 4.14128 44.4313 4.08178C44.3312 3.68789 44.1862 3.31411 43.9989 2.96632C42.9189 2.49867 41.9621 2.41152 41.9621 2.41152C39.9059 2.26863 38.3797 3.71052 38.7291 5.23119L38.7266 5.23915L38.7496 5.45872C38.0194 4.0801 39.1195 2.29293 41.1418 1.8982C41.1418 1.8982 42.0806 1.7352 43.2352 1.90742C42.9424 1.59817 42.6081 1.32706 42.2373 1.09827C41.0798 1.23403 40.2163 1.63463 40.2163 1.63463C38.3655 2.53806 37.7639 4.55152 38.8267 5.6938L38.828 5.7005L38.9587 5.88069C37.6369 5.05184 37.6968 2.95165 39.2511 1.59985C39.2511 1.59985 39.9775 0.993929 41.058 0.565258C40.6122 0.431587 40.1501 0.363704 39.6839 0.360352C38.7806 1.04798 38.2532 1.79512 38.2532 1.79512C37.1015 3.50435 37.5875 5.54797 39.0781 6.00598L39.0835 6.01101L39.2863 6.1011C37.7278 6.04495 36.7295 4.19701 37.4002 2.24809C37.4002 2.24809 37.709 1.40793 38.3902 0.524612C38.0001 0.625599 37.6311 0.773099 37.285 0.95873C36.8451 2.00841 36.763 2.9219 36.763 2.9219C36.6193 4.97893 38.0621 6.50546 39.5825 6.15641L39.5892 6.1585L39.8104 6.13378C38.4316 6.86583 36.6432 5.76461 36.2506 3.74111C36.2506 3.74111 36.0931 2.83725 36.2506 1.71089C35.9222 2.02223 35.6348 2.37967 35.3968 2.77859C35.5443 3.88861 35.9209 4.70404 35.9209 4.70404C36.8246 6.55659 38.8368 7.15748 39.9784 6.09397L39.9868 6.0923L40.1652 5.96282C39.3382 7.28403 37.2372 7.22536 35.8862 5.66949C35.8862 5.66949 35.1932 4.80335 34.8313 3.79516C34.8317 3.74781 34.8175 3.70256 34.7881 3.66652C34.7508 3.62294 34.6964 3.59696 34.6377 3.59696H33.6344C33.5422 3.59696 33.463 3.66107 33.4437 3.75074C33.4437 3.75074 33.3667 3.86765 33.331 4.09854C33.1082 3.89866 32.8442 3.78301 32.6029 3.67867L32.5011 3.63509C32.4894 3.63048 32.4764 3.62587 32.4647 3.62336C31.3742 3.38367 30.2787 3.71261 29.3804 4.54816C28.8501 5.03676 28.4688 5.61586 28.2527 6.24189C28.2527 6.24189 28.246 6.25782 28.2342 6.28296L28.6611 3.82324C28.6703 3.76751 28.6548 3.70926 28.618 3.66568C28.5803 3.6221 28.5258 3.59654 28.4688 3.59696L27.398 3.59822C27.3042 3.59905 27.2242 3.66568 27.207 3.75871L26.1006 9.79445C26.0909 9.85102 26.1064 9.90927 26.1433 9.9541C26.1797 9.99768 26.2346 10.0224 26.292 10.0224L27.4206 10.0253C27.5162 10.0253 27.597 9.95704 27.6125 9.86359L28.039 7.40806C28.0436 7.42356 28.0474 7.43362 28.0474 7.43362C28.0436 7.6775 28.0637 7.92515 28.1094 8.17238C28.2753 9.09509 29.0935 9.9562 29.9753 10.1314C30.7445 10.2709 31.5673 10.0756 32.3792 9.57446C32.3633 9.66204 32.3377 9.79445 32.3377 9.79445C32.3356 9.80576 32.3348 9.81792 32.3348 9.83007C32.3348 9.8749 32.3503 9.9189 32.3792 9.9541C32.4157 9.9981 32.4705 10.0224 32.5296 10.0224L33.5254 10.0253C33.6193 10.0253 33.7001 9.95913 33.7165 9.86694L34.5933 5.11637C35.2494 5.89577 36.1078 6.56119 36.1078 6.56119C37.8154 7.71437 39.859 7.22746 40.316 5.73696L40.3227 5.73067L40.4116 5.52828C40.3558 7.0875 38.5079 8.08647 36.5594 7.41476C36.5594 7.41476 35.7194 7.10594 34.8342 6.42459C34.8417 6.45686 34.848 6.49038 34.8564 6.52306C34.9616 6.9312 35.1136 7.31797 35.3105 7.6775C36.3403 8.10156 37.2285 8.18159 37.2285 8.18159C39.2834 8.32532 40.81 6.88259 40.4606 5.36192L40.4635 5.35396L40.4392 5.13355C41.1703 6.51217 40.0697 8.30228 38.0471 8.69407C38.0471 8.69407 37.1631 8.84869 36.055 8.6991C36.3202 8.97859 36.6193 9.22918 36.9494 9.44372C38.0977 9.30502 38.9486 8.90903 38.9486 8.90903C40.8003 8.00602 41.4023 5.99215 40.3391 4.85112L40.337 4.84232L40.2071 4.66424C41.5289 5.49224 41.4698 7.5916 39.9151 8.94465C39.9151 8.94465 39.1736 9.56063 38.0776 9.99014C38.3801 10.092 38.6906 10.1645 39.0052 10.2059H39.4534C40.3743 9.5116 40.9114 8.74855 40.9114 8.74855C42.0643 7.03973 41.5783 4.99485 40.0873 4.53811L40.081 4.53182L39.8795 4.44257C41.4384 4.49914 42.4367 6.34707 41.766 8.29599C41.766 8.29599 41.4308 9.2078 40.6881 10.1326C40.748 10.1192 40.8054 10.107 40.8644 10.0915C41.2411 9.99601 41.5955 9.85647 41.9252 9.68634C42.386 8.61404 42.4706 7.6666 42.4706 7.6666C42.6152 5.61209 41.1719 4.08387 39.6508 4.43335L39.6445 4.43167L39.4245 4.45514C40.802 3.72434 42.5913 4.82514 42.9847 6.84865C42.9847 6.84865 43.2118 7.77765 43.0417 8.87803C43.009 9.03684 42.9424 9.26731 42.8142 9.51286C42.7752 9.58116 42.7266 9.66204 42.668 9.7559C42.6692 9.75464 42.6696 9.75339 42.6696 9.75339C42.6692 9.7559 42.6667 9.75799 42.665 9.76093C42.6638 9.76386 42.6638 9.76428 42.6638 9.76638C42.6407 9.80576 42.6357 9.85479 42.6554 9.89879C42.6784 9.95033 42.7304 9.98343 42.7878 9.98218H43.4145C43.7438 9.9805 44.027 9.97883 44.4036 9.99182C44.4485 9.99265 44.4912 9.97338 44.5201 9.94027C44.5201 9.94027 49.3681 4.14254 49.9688 3.42432C49.7388 4.61311 49.087 7.66954 48.6203 9.81582C48.6186 9.82588 48.6178 9.83635 48.6178 9.84641C48.6178 9.87951 48.6286 9.91178 48.6492 9.93734C48.6768 9.97254 48.7187 9.99182 48.764 9.99182L49.8662 9.98218C49.9081 9.98218 49.9479 9.96416 49.9751 9.93189C49.9751 9.93189 54.8621 4.21377 55.4875 3.4834C55.227 4.67639 54.5135 7.69133 54.0049 9.81247C54.0016 9.82378 53.9999 9.83426 53.9999 9.84641C53.9999 9.87784 54.0108 9.90969 54.0313 9.93608C54.0594 9.97128 54.1004 9.99182 54.1457 9.99182H55.4494C55.516 9.99182 55.5751 9.94656 55.591 9.88035L56.1553 7.59076L56.2337 7.26894C56.2362 7.36071 56.2374 7.43362 56.2374 7.43362C56.2349 7.6775 56.255 7.92515 56.3007 8.17238C56.4653 9.09509 57.2852 9.9562 58.1654 10.1314C58.9346 10.2709 59.7582 10.0756 60.5701 9.57446C60.5538 9.66204 60.5286 9.79445 60.5286 9.79445C60.5265 9.80576 60.5253 9.81792 60.5253 9.83007C60.5253 9.8749 60.5404 9.9189 60.5689 9.9541C60.607 9.9981 60.6619 10.0224 60.7188 10.0224L61.7155 10.0253C61.8102 10.0253 61.8902 9.95913 61.907 9.86694L62.8068 5.08411L63.0226 3.79516C63.0234 3.74781 63.0088 3.70256 62.9773 3.66652Z" fill="#236BFF"/>
</svg>
